<mxfile host="app.diagrams.net" modified="2020-04-15T06:58:13.529Z" agent="5.0 (Windows NT 6.1; WOW64) AppleWebKit/537.36 (KHTML, like Gecko) Chrome/80.0.3987.163 Safari/537.36" etag="lXw68AeZP11-aiQjypLQ" version="12.9.12" type="github" pages="3">
  <diagram name="Page-1" id="7a6c530e-6e37-e111-ec74-82921da8cc10">
    <mxGraphModel dx="1886" dy="769" grid="1" gridSize="10" guides="1" tooltips="1" connect="1" arrows="1" fold="1" page="1" pageScale="1.5" pageWidth="1169" pageHeight="826" background="#184380" math="0" shadow="0">
      <root>
        <mxCell id="0" style=";html=1;" />
        <mxCell id="1" style=";html=1;" parent="0" />
        <mxCell id="23046e2b9bb16c14-116" value="Azure Group" style="whiteSpace=wrap;html=1;rounded=1;shadow=0;strokeColor=none;strokeWidth=2;fillColor=#009BFF;fontSize=20;fontColor=#FFFFFF;align=center;arcSize=3;verticalAlign=top;spacingTop=4;" parent="1" vertex="1">
          <mxGeometry x="287" y="217" width="1180" height="550" as="geometry" />
        </mxCell>
        <mxCell id="23046e2b9bb16c14-64" value="Web role instances" style="rounded=1;whiteSpace=wrap;html=1;shadow=0;strokeWidth=2;fillColor=#0072BC;fontSize=12;fontColor=#FFFFFF;align=center;strokeColor=none;arcSize=3;verticalAlign=top;" parent="1" vertex="1">
          <mxGeometry x="1286" y="291" width="150" height="420" as="geometry" />
        </mxCell>
        <mxCell id="23046e2b9bb16c14-27" value="" style="rounded=1;whiteSpace=wrap;html=1;shadow=0;strokeWidth=2;fillColor=#8BC63E;fontSize=12;fontColor=#000000;align=center;strokeColor=none;arcSize=3;" parent="1" vertex="1">
          <mxGeometry x="726" y="291" width="530" height="420" as="geometry" />
        </mxCell>
        <mxCell id="23046e2b9bb16c14-2" value="" style="rounded=1;whiteSpace=wrap;html=1;shadow=0;strokeWidth=2;fillColor=none;fontSize=12;fontColor=#000000;align=center;strokeColor=#FFFFFF;arcSize=10;" parent="1" vertex="1">
          <mxGeometry x="876" y="420" width="160" height="241" as="geometry" />
        </mxCell>
        <mxCell id="23046e2b9bb16c14-54" value="Availability set" style="rounded=1;whiteSpace=wrap;html=1;shadow=0;strokeWidth=2;fillColor=none;fontSize=11;fontColor=#FFFFFF;align=center;strokeColor=#FFFFFF;dashed=1;verticalAlign=top;" parent="1" vertex="1">
          <mxGeometry x="956" y="441" width="70" height="211" as="geometry" />
        </mxCell>
        <mxCell id="23046e2b9bb16c14-28" value="On-premises networks" style="rounded=1;whiteSpace=wrap;html=1;shadow=0;strokeWidth=2;fillColor=#F04D22;fontSize=12;fontColor=#FFFFFF;align=center;strokeColor=none;arcSize=6;verticalAlign=top;" parent="1" vertex="1">
          <mxGeometry x="466" y="378" width="230" height="330" as="geometry" />
        </mxCell>
        <mxCell id="23046e2b9bb16c14-49" value="" style="rounded=1;whiteSpace=wrap;html=1;shadow=0;strokeWidth=2;fillColor=none;fontSize=12;fontColor=#000000;align=center;strokeColor=#FFFFFF;" parent="1" vertex="1">
          <mxGeometry x="486" y="410" width="80" height="218" as="geometry" />
        </mxCell>
        <mxCell id="23046e2b9bb16c14-1" value="" style="rounded=1;whiteSpace=wrap;html=1;shadow=0;strokeWidth=2;fillColor=none;fontSize=12;fontColor=#000000;align=center;strokeColor=#FFFFFF;" parent="1" vertex="1">
          <mxGeometry x="746" y="420" width="110" height="221" as="geometry" />
        </mxCell>
        <mxCell id="24964f25f45c63f1-1" value="" style="verticalLabelPosition=bottom;html=1;verticalAlign=top;strokeColor=none;fillColor=#FFFFFF;shape=mxgraph.azure.computer;rounded=0;shadow=0;fontSize=12;fontColor=#000000;align=center;" parent="1" vertex="1">
          <mxGeometry x="501" y="424" width="50" height="45" as="geometry" />
        </mxCell>
        <mxCell id="24964f25f45c63f1-2" value="" style="verticalLabelPosition=bottom;html=1;verticalAlign=top;strokeColor=none;fillColor=#FFFFFF;shape=mxgraph.azure.computer;rounded=0;shadow=0;fontSize=12;fontColor=#000000;align=center;" parent="1" vertex="1">
          <mxGeometry x="501" y="494" width="50" height="45" as="geometry" />
        </mxCell>
        <mxCell id="24964f25f45c63f1-3" value="" style="verticalLabelPosition=bottom;html=1;verticalAlign=top;strokeColor=none;fillColor=#FFFFFF;shape=mxgraph.azure.computer;rounded=0;shadow=0;fontSize=12;fontColor=#000000;align=center;" parent="1" vertex="1">
          <mxGeometry x="501" y="564" width="50" height="45" as="geometry" />
        </mxCell>
        <mxCell id="23046e2b9bb16c14-73" style="html=1;startArrow=none;startFill=0;startSize=10;endArrow=none;endFill=0;endSize=10;strokeWidth=3;fontSize=11;fontColor=#FFFFFF;strokeColor=#FFFFFF;rounded=0;" parent="1" source="24964f25f45c63f1-5" target="23046e2b9bb16c14-7" edge="1">
          <mxGeometry relative="1" as="geometry" />
        </mxCell>
        <mxCell id="24964f25f45c63f1-5" value="Gateway" style="shadow=0;dashed=0;html=1;strokeColor=none;shape=mxgraph.mscae.enterprise.gateway;fillColor=#FFFFFF;rounded=0;fontSize=12;fontColor=#FFFFFF;align=center;labelPosition=center;verticalLabelPosition=top;verticalAlign=bottom;" parent="1" vertex="1">
          <mxGeometry x="773" y="541" width="50" height="50" as="geometry" />
        </mxCell>
        <mxCell id="24964f25f45c63f1-6" value="" style="shadow=0;dashed=0;html=1;strokeColor=none;shape=mxgraph.mscae.enterprise.lock;fillColor=#FFFFFF;rounded=0;fontSize=12;fontColor=#000000;align=center;" parent="1" vertex="1">
          <mxGeometry x="896" y="436" width="39" height="50" as="geometry" />
        </mxCell>
        <mxCell id="23046e2b9bb16c14-7" value="" style="shadow=0;dashed=0;html=1;strokeColor=none;labelPosition=center;verticalLabelPosition=bottom;verticalAlign=top;shape=mxgraph.mscae.cloud.azure_load_balancer_feature;fillColor=#FFFFFF;rounded=1;fontSize=12;fontColor=#000000;align=center;" parent="1" vertex="1">
          <mxGeometry x="891" y="541" width="50" height="50" as="geometry" />
        </mxCell>
        <mxCell id="23046e2b9bb16c14-75" style="html=1;startArrow=none;startFill=0;startSize=10;endArrow=none;endFill=0;endSize=10;strokeWidth=3;fontSize=11;fontColor=#FFFFFF;entryX=0.793;entryY=0.26;entryPerimeter=0;strokeColor=#FFFFFF;rounded=0;" parent="1" source="23046e2b9bb16c14-29" target="23046e2b9bb16c14-7" edge="1">
          <mxGeometry relative="1" as="geometry" />
        </mxCell>
        <mxCell id="23046e2b9bb16c14-29" value="" style="verticalLabelPosition=bottom;html=1;verticalAlign=top;strokeColor=none;fillColor=#FFFFFF;shape=mxgraph.azure.virtual_machine;rounded=1;shadow=0;fontSize=12;fontColor=#000000;align=center;" parent="1" vertex="1">
          <mxGeometry x="966" y="493" width="50" height="40" as="geometry" />
        </mxCell>
        <mxCell id="23046e2b9bb16c14-76" style="html=1;entryX=1.016;entryY=0.509;entryPerimeter=0;startArrow=none;startFill=0;startSize=10;endArrow=none;endFill=0;endSize=10;strokeWidth=3;fontSize=11;fontColor=#FFFFFF;strokeColor=#FFFFFF;rounded=0;" parent="1" source="23046e2b9bb16c14-30" target="23046e2b9bb16c14-7" edge="1">
          <mxGeometry relative="1" as="geometry" />
        </mxCell>
        <mxCell id="23046e2b9bb16c14-30" value="" style="verticalLabelPosition=bottom;html=1;verticalAlign=top;strokeColor=none;fillColor=#FFFFFF;shape=mxgraph.azure.virtual_machine;rounded=1;shadow=0;fontSize=12;fontColor=#000000;align=center;" parent="1" vertex="1">
          <mxGeometry x="966" y="546" width="50" height="40" as="geometry" />
        </mxCell>
        <mxCell id="23046e2b9bb16c14-77" style="html=1;entryX=0.802;entryY=0.762;entryPerimeter=0;startArrow=none;startFill=0;startSize=10;endArrow=none;endFill=0;endSize=10;strokeWidth=3;fontSize=11;fontColor=#FFFFFF;strokeColor=#FFFFFF;rounded=0;" parent="1" source="23046e2b9bb16c14-31" target="23046e2b9bb16c14-7" edge="1">
          <mxGeometry relative="1" as="geometry" />
        </mxCell>
        <mxCell id="23046e2b9bb16c14-31" value="" style="verticalLabelPosition=bottom;html=1;verticalAlign=top;strokeColor=none;fillColor=#FFFFFF;shape=mxgraph.azure.virtual_machine;rounded=1;shadow=0;fontSize=12;fontColor=#000000;align=center;" parent="1" vertex="1">
          <mxGeometry x="966" y="598" width="50" height="40" as="geometry" />
        </mxCell>
        <mxCell id="23046e2b9bb16c14-48" value="Azure Vnet" style="shadow=0;dashed=0;html=1;strokeColor=none;fillColor=#FFFFFF;labelPosition=center;verticalLabelPosition=bottom;verticalAlign=top;shape=mxgraph.office.clouds.azure;rounded=1;fontSize=12;fontColor=#FFFFFF;align=center;" parent="1" vertex="1">
          <mxGeometry x="756" y="311" width="83" height="53" as="geometry" />
        </mxCell>
        <mxCell id="23046e2b9bb16c14-50" value="" style="rounded=1;whiteSpace=wrap;html=1;shadow=0;strokeWidth=2;fillColor=none;fontSize=12;fontColor=#000000;align=center;strokeColor=#FFFFFF;" parent="1" vertex="1">
          <mxGeometry x="596" y="409" width="80" height="218" as="geometry" />
        </mxCell>
        <mxCell id="23046e2b9bb16c14-51" value="" style="verticalLabelPosition=bottom;html=1;verticalAlign=top;strokeColor=none;fillColor=#FFFFFF;shape=mxgraph.azure.computer;rounded=0;shadow=0;fontSize=12;fontColor=#000000;align=center;" parent="1" vertex="1">
          <mxGeometry x="611" y="423" width="50" height="45" as="geometry" />
        </mxCell>
        <mxCell id="23046e2b9bb16c14-52" value="" style="verticalLabelPosition=bottom;html=1;verticalAlign=top;strokeColor=none;fillColor=#FFFFFF;shape=mxgraph.azure.computer;rounded=0;shadow=0;fontSize=12;fontColor=#000000;align=center;" parent="1" vertex="1">
          <mxGeometry x="611" y="493" width="50" height="45" as="geometry" />
        </mxCell>
        <mxCell id="23046e2b9bb16c14-53" value="" style="verticalLabelPosition=bottom;html=1;verticalAlign=top;strokeColor=none;fillColor=#FFFFFF;shape=mxgraph.azure.computer;rounded=0;shadow=0;fontSize=12;fontColor=#000000;align=center;" parent="1" vertex="1">
          <mxGeometry x="611" y="563" width="50" height="45" as="geometry" />
        </mxCell>
        <mxCell id="23046e2b9bb16c14-71" style="edgeStyle=orthogonalEdgeStyle;html=1;startArrow=none;startFill=0;startSize=10;endArrow=none;endFill=0;endSize=10;strokeWidth=3;fontSize=11;fontColor=#FFFFFF;strokeColor=#FFFFFF;dashed=1;rounded=0;" parent="1" source="24964f25f45c63f1-4" target="24964f25f45c63f1-5" edge="1">
          <mxGeometry relative="1" as="geometry">
            <Array as="points">
              <mxPoint x="581" y="730" />
              <mxPoint x="798" y="730" />
            </Array>
          </mxGeometry>
        </mxCell>
        <mxCell id="24964f25f45c63f1-4" value="Gateway" style="shadow=0;dashed=0;html=1;strokeColor=none;shape=mxgraph.mscae.enterprise.gateway;fillColor=#FFFFFF;rounded=0;fontSize=12;fontColor=#FFFFFF;align=center;labelPosition=center;verticalLabelPosition=top;verticalAlign=bottom;" parent="1" vertex="1">
          <mxGeometry x="556" y="648" width="50" height="50" as="geometry" />
        </mxCell>
        <mxCell id="23046e2b9bb16c14-55" value="" style="rounded=1;whiteSpace=wrap;html=1;shadow=0;strokeWidth=2;fillColor=none;fontSize=12;fontColor=#000000;align=center;strokeColor=#FFFFFF;arcSize=9;" parent="1" vertex="1">
          <mxGeometry x="1071" y="420" width="160" height="241" as="geometry" />
        </mxCell>
        <mxCell id="23046e2b9bb16c14-56" value="&lt;span&gt;Availability set&lt;/span&gt;" style="rounded=1;whiteSpace=wrap;html=1;shadow=0;strokeWidth=2;fillColor=none;fontSize=11;fontColor=#FFFFFF;align=center;strokeColor=#FFFFFF;dashed=1;verticalAlign=top;" parent="1" vertex="1">
          <mxGeometry x="1151" y="441" width="70" height="211" as="geometry" />
        </mxCell>
        <mxCell id="23046e2b9bb16c14-57" value="" style="shadow=0;dashed=0;html=1;strokeColor=none;shape=mxgraph.mscae.enterprise.lock;fillColor=#FFFFFF;rounded=0;fontSize=12;fontColor=#000000;align=center;" parent="1" vertex="1">
          <mxGeometry x="1091" y="436" width="39" height="50" as="geometry" />
        </mxCell>
        <mxCell id="23046e2b9bb16c14-74" style="html=1;startArrow=none;startFill=0;startSize=10;endArrow=none;endFill=0;endSize=10;strokeWidth=3;fontSize=11;fontColor=#FFFFFF;strokeColor=#FFFFFF;rounded=0;edgeStyle=elbowEdgeStyle;elbow=vertical;" parent="1" source="23046e2b9bb16c14-58" target="23046e2b9bb16c14-2" edge="1">
          <mxGeometry relative="1" as="geometry" />
        </mxCell>
        <mxCell id="23046e2b9bb16c14-78" style="edgeStyle=orthogonalEdgeStyle;html=1;startArrow=none;startFill=0;startSize=10;endArrow=none;endFill=0;endSize=10;strokeWidth=3;fontSize=11;fontColor=#FFFFFF;strokeColor=#FFFFFF;rounded=0;" parent="1" source="23046e2b9bb16c14-58" target="23046e2b9bb16c14-60" edge="1">
          <mxGeometry relative="1" as="geometry" />
        </mxCell>
        <mxCell id="23046e2b9bb16c14-79" style="html=1;startArrow=none;startFill=0;startSize=10;endArrow=none;endFill=0;endSize=10;strokeWidth=3;fontSize=11;fontColor=#FFFFFF;strokeColor=#FFFFFF;rounded=0;exitX=0.796;exitY=0.241;exitPerimeter=0;" parent="1" source="23046e2b9bb16c14-58" target="23046e2b9bb16c14-59" edge="1">
          <mxGeometry relative="1" as="geometry" />
        </mxCell>
        <mxCell id="23046e2b9bb16c14-80" style="html=1;startArrow=none;startFill=0;startSize=10;endArrow=none;endFill=0;endSize=10;strokeWidth=3;fontSize=11;fontColor=#FFFFFF;strokeColor=#FFFFFF;rounded=0;exitX=0.789;exitY=0.767;exitPerimeter=0;" parent="1" source="23046e2b9bb16c14-58" target="23046e2b9bb16c14-61" edge="1">
          <mxGeometry relative="1" as="geometry" />
        </mxCell>
        <mxCell id="23046e2b9bb16c14-58" value="" style="shadow=0;dashed=0;html=1;strokeColor=none;labelPosition=center;verticalLabelPosition=bottom;verticalAlign=top;shape=mxgraph.mscae.cloud.azure_load_balancer_feature;fillColor=#FFFFFF;rounded=1;fontSize=12;fontColor=#000000;align=center;" parent="1" vertex="1">
          <mxGeometry x="1086" y="541" width="50" height="50" as="geometry" />
        </mxCell>
        <mxCell id="23046e2b9bb16c14-59" value="" style="verticalLabelPosition=bottom;html=1;verticalAlign=top;strokeColor=none;fillColor=#FFFFFF;shape=mxgraph.azure.virtual_machine;rounded=1;shadow=0;fontSize=12;fontColor=#000000;align=center;" parent="1" vertex="1">
          <mxGeometry x="1161" y="493" width="50" height="40" as="geometry" />
        </mxCell>
        <mxCell id="23046e2b9bb16c14-60" value="" style="verticalLabelPosition=bottom;html=1;verticalAlign=top;strokeColor=none;fillColor=#FFFFFF;shape=mxgraph.azure.virtual_machine;rounded=1;shadow=0;fontSize=12;fontColor=#000000;align=center;" parent="1" vertex="1">
          <mxGeometry x="1161" y="546" width="50" height="40" as="geometry" />
        </mxCell>
        <mxCell id="23046e2b9bb16c14-61" value="" style="verticalLabelPosition=bottom;html=1;verticalAlign=top;strokeColor=none;fillColor=#FFFFFF;shape=mxgraph.azure.virtual_machine;rounded=1;shadow=0;fontSize=12;fontColor=#000000;align=center;" parent="1" vertex="1">
          <mxGeometry x="1161" y="598" width="50" height="40" as="geometry" />
        </mxCell>
        <mxCell id="23046e2b9bb16c14-69" style="edgeStyle=orthogonalEdgeStyle;html=1;startArrow=none;startFill=0;startSize=10;endArrow=none;endFill=0;endSize=10;strokeWidth=3;fontSize=11;fontColor=#FFFFFF;strokeColor=#FFFFFF;dashed=1;rounded=0;" parent="1" source="23046e2b9bb16c14-62" target="23046e2b9bb16c14-63" edge="1">
          <mxGeometry relative="1" as="geometry" />
        </mxCell>
        <mxCell id="23046e2b9bb16c14-62" value="Firewall" style="shadow=0;dashed=0;html=1;strokeColor=none;labelPosition=right;verticalLabelPosition=middle;verticalAlign=middle;shape=mxgraph.office.concepts.firewall;fillColor=#FFFFFF;rounded=1;fontSize=11;fontColor=#FFFFFF;align=left;spacingLeft=5;" parent="1" vertex="1">
          <mxGeometry x="328" y="475" width="47" height="43" as="geometry" />
        </mxCell>
        <mxCell id="23046e2b9bb16c14-70" style="edgeStyle=orthogonalEdgeStyle;html=1;startArrow=none;startFill=0;startSize=10;endArrow=none;endFill=0;endSize=10;strokeWidth=3;fontSize=11;fontColor=#FFFFFF;strokeColor=#FFFFFF;dashed=1;rounded=0;" parent="1" source="24964f25f45c63f1-4" target="23046e2b9bb16c14-68" edge="1">
          <mxGeometry relative="1" as="geometry">
            <mxPoint x="606" y="730" as="sourcePoint" />
            <Array as="points">
              <mxPoint x="581" y="730" />
              <mxPoint x="1361" y="730" />
            </Array>
          </mxGeometry>
        </mxCell>
        <mxCell id="23046e2b9bb16c14-72" style="edgeStyle=orthogonalEdgeStyle;html=1;startArrow=none;startFill=0;startSize=10;endArrow=none;endFill=0;endSize=10;strokeWidth=3;fontSize=11;fontColor=#FFFFFF;strokeColor=#FFFFFF;dashed=1;rounded=0;" parent="1" source="23046e2b9bb16c14-63" target="24964f25f45c63f1-4" edge="1">
          <mxGeometry relative="1" as="geometry">
            <Array as="points">
              <mxPoint x="351" y="730" />
              <mxPoint x="581" y="730" />
            </Array>
          </mxGeometry>
        </mxCell>
        <mxCell id="23046e2b9bb16c14-63" value="Windows&lt;div&gt;Azure&lt;/div&gt;&lt;div&gt;Load&lt;/div&gt;&lt;div&gt;Balancer&lt;/div&gt;" style="verticalLabelPosition=middle;html=1;verticalAlign=middle;strokeColor=none;fillColor=#FFFFFF;shape=mxgraph.azure.azure_load_balancer;rounded=1;shadow=0;dashed=1;fontSize=11;fontColor=#FFFFFF;align=left;labelPosition=right;spacingLeft=5;" parent="1" vertex="1">
          <mxGeometry x="326" y="593" width="50" height="35" as="geometry" />
        </mxCell>
        <mxCell id="23046e2b9bb16c14-65" value="" style="shadow=0;dashed=0;html=1;strokeColor=none;shape=mxgraph.mscae.enterprise.web;fillColor=#FFFFFF;rounded=1;fontSize=11;fontColor=#FFFFFF;align=center;" parent="1" vertex="1">
          <mxGeometry x="1336" y="531" width="50" height="50" as="geometry" />
        </mxCell>
        <mxCell id="23046e2b9bb16c14-66" value="" style="shadow=0;dashed=0;html=1;strokeColor=none;shape=mxgraph.mscae.enterprise.web;fillColor=#FFFFFF;rounded=1;fontSize=11;fontColor=#FFFFFF;align=center;" parent="1" vertex="1">
          <mxGeometry x="1336" y="450" width="50" height="50" as="geometry" />
        </mxCell>
        <mxCell id="23046e2b9bb16c14-67" value="" style="shadow=0;dashed=0;html=1;strokeColor=none;shape=mxgraph.mscae.enterprise.web;fillColor=#FFFFFF;rounded=1;fontSize=11;fontColor=#FFFFFF;align=center;" parent="1" vertex="1">
          <mxGeometry x="1336" y="370" width="50" height="50" as="geometry" />
        </mxCell>
        <mxCell id="23046e2b9bb16c14-117" style="edgeStyle=orthogonalEdgeStyle;rounded=0;elbow=vertical;html=1;startArrow=none;startFill=0;startSize=10;endArrow=none;endFill=0;endSize=10;strokeColor=#FFFFFF;strokeWidth=3;fontSize=20;fontColor=#FFFFFF;entryX=0.004;entryY=0.516;entryPerimeter=0;" parent="1" source="23046e2b9bb16c14-68" target="23046e2b9bb16c14-65" edge="1">
          <mxGeometry relative="1" as="geometry">
            <mxPoint x="1520" y="590" as="targetPoint" />
            <Array as="points">
              <mxPoint x="1326" y="673" />
              <mxPoint x="1326" y="557" />
            </Array>
          </mxGeometry>
        </mxCell>
        <mxCell id="23046e2b9bb16c14-119" style="edgeStyle=orthogonalEdgeStyle;rounded=0;elbow=vertical;html=1;entryX=-0.002;entryY=0.494;entryPerimeter=0;startArrow=none;startFill=0;startSize=10;endArrow=none;endFill=0;endSize=10;strokeColor=#FFFFFF;strokeWidth=3;fontSize=20;fontColor=#FFFFFF;" parent="1" source="23046e2b9bb16c14-68" target="23046e2b9bb16c14-67" edge="1">
          <mxGeometry relative="1" as="geometry">
            <Array as="points">
              <mxPoint x="1326" y="673" />
              <mxPoint x="1326" y="395" />
            </Array>
          </mxGeometry>
        </mxCell>
        <mxCell id="23046e2b9bb16c14-68" value="Gateway" style="shadow=0;dashed=0;html=1;strokeColor=none;shape=mxgraph.mscae.enterprise.gateway;fillColor=#FFFFFF;rounded=0;fontSize=12;fontColor=#FFFFFF;align=center;labelPosition=center;verticalLabelPosition=top;verticalAlign=bottom;" parent="1" vertex="1">
          <mxGeometry x="1336" y="648" width="50" height="50" as="geometry" />
        </mxCell>
        <mxCell id="23046e2b9bb16c14-81" value="A" style="text;html=1;strokeColor=none;fillColor=none;align=center;verticalAlign=middle;whiteSpace=wrap;rounded=1;shadow=0;fontSize=11;fontColor=#FFFFFF;fontStyle=1" parent="1" vertex="1">
          <mxGeometry x="666" y="678" width="20" height="20" as="geometry" />
        </mxCell>
        <mxCell id="23046e2b9bb16c14-82" value="B" style="text;html=1;strokeColor=none;fillColor=none;align=center;verticalAlign=middle;whiteSpace=wrap;rounded=1;shadow=0;fontSize=11;fontColor=#FFFFFF;fontStyle=1" parent="1" vertex="1">
          <mxGeometry x="1226" y="678" width="20" height="20" as="geometry" />
        </mxCell>
        <mxCell id="23046e2b9bb16c14-83" value="C" style="text;html=1;strokeColor=none;fillColor=none;align=center;verticalAlign=middle;whiteSpace=wrap;rounded=1;shadow=0;fontSize=11;fontColor=#FFFFFF;fontStyle=1" parent="1" vertex="1">
          <mxGeometry x="1406" y="680" width="20" height="20" as="geometry" />
        </mxCell>
        <mxCell id="23046e2b9bb16c14-84" value="" style="rounded=0;whiteSpace=wrap;html=1;shadow=0;strokeWidth=2;fillColor=#F04D22;fontSize=12;fontColor=#FFFFFF;align=center;strokeColor=none;arcSize=6;verticalAlign=top;" parent="1" vertex="1">
          <mxGeometry x="326" y="820" width="300" height="102" as="geometry" />
        </mxCell>
        <mxCell id="23046e2b9bb16c14-85" value="" style="rounded=0;whiteSpace=wrap;html=1;shadow=0;strokeWidth=2;fillColor=#8BC63E;fontSize=12;fontColor=#FFFFFF;align=center;strokeColor=none;arcSize=6;verticalAlign=top;" parent="1" vertex="1">
          <mxGeometry x="626" y="820" width="400" height="102" as="geometry" />
        </mxCell>
        <mxCell id="23046e2b9bb16c14-86" value="" style="rounded=0;whiteSpace=wrap;html=1;shadow=0;strokeWidth=2;fillColor=#0072BC;fontSize=12;fontColor=#FFFFFF;align=center;strokeColor=none;arcSize=3;verticalAlign=top;" parent="1" vertex="1">
          <mxGeometry x="1026" y="820" width="390" height="102" as="geometry" />
        </mxCell>
        <mxCell id="23046e2b9bb16c14-87" value="A" style="text;html=1;strokeColor=none;fillColor=none;align=center;verticalAlign=middle;whiteSpace=wrap;rounded=1;shadow=0;fontSize=30;fontColor=#FFFFFF;fontStyle=1" parent="1" vertex="1">
          <mxGeometry x="326" y="853" width="40" height="35" as="geometry" />
        </mxCell>
        <mxCell id="23046e2b9bb16c14-88" value="B" style="text;html=1;strokeColor=none;fillColor=none;align=center;verticalAlign=middle;whiteSpace=wrap;rounded=1;shadow=0;fontSize=30;fontColor=#FFFFFF;fontStyle=1" parent="1" vertex="1">
          <mxGeometry x="626" y="853" width="40" height="35" as="geometry" />
        </mxCell>
        <mxCell id="23046e2b9bb16c14-89" value="C" style="text;html=1;strokeColor=none;fillColor=none;align=center;verticalAlign=middle;whiteSpace=wrap;rounded=1;shadow=0;fontSize=30;fontColor=#FFFFFF;fontStyle=1" parent="1" vertex="1">
          <mxGeometry x="1026" y="853" width="40" height="35" as="geometry" />
        </mxCell>
        <mxCell id="23046e2b9bb16c14-90" value="Computer" style="verticalLabelPosition=top;html=1;verticalAlign=bottom;strokeColor=none;fillColor=#FFFFFF;shape=mxgraph.azure.computer;rounded=0;shadow=0;fontSize=10;fontColor=#FFFFFF;align=center;labelPosition=center;" parent="1" vertex="1">
          <mxGeometry x="393" y="860" width="50" height="45" as="geometry" />
        </mxCell>
        <mxCell id="23046e2b9bb16c14-91" value="VHD" style="shadow=0;html=1;strokeColor=none;fillColor=#FFFFFF;labelPosition=center;verticalLabelPosition=top;verticalAlign=bottom;shape=mxgraph.azure.vhd;rounded=0;fontSize=10;fontColor=#FFFFFF;align=center;" parent="1" vertex="1">
          <mxGeometry x="483" y="857" width="40" height="50" as="geometry" />
        </mxCell>
        <mxCell id="23046e2b9bb16c14-92" value="+" style="text;html=1;strokeColor=none;fillColor=none;align=center;verticalAlign=middle;whiteSpace=wrap;rounded=1;shadow=0;fontSize=30;fontColor=#FFFFFF;fontStyle=1" parent="1" vertex="1">
          <mxGeometry x="443" y="865" width="40" height="35" as="geometry" />
        </mxCell>
        <mxCell id="23046e2b9bb16c14-93" value="+" style="text;html=1;strokeColor=none;fillColor=none;align=center;verticalAlign=middle;whiteSpace=wrap;rounded=1;shadow=0;fontSize=30;fontColor=#FFFFFF;fontStyle=1" parent="1" vertex="1">
          <mxGeometry x="523" y="865" width="40" height="35" as="geometry" />
        </mxCell>
        <mxCell id="23046e2b9bb16c14-94" value="Server&lt;div&gt;Directory&lt;/div&gt;" style="shadow=0;html=1;strokeColor=none;shape=mxgraph.mscae.enterprise.server_directory;fillColor=#FFFFFF;rounded=0;fontSize=10;fontColor=#FFFFFF;align=center;verticalAlign=bottom;labelPosition=center;verticalLabelPosition=top;" parent="1" vertex="1">
          <mxGeometry x="563" y="858" width="36" height="50" as="geometry" />
        </mxCell>
        <mxCell id="23046e2b9bb16c14-95" value="VM Feature" style="shadow=0;html=1;strokeColor=none;fillColor=#FFFFFF;labelPosition=center;verticalLabelPosition=top;verticalAlign=bottom;shape=mxgraph.azure.virtual_machine_feature;rounded=0;fontSize=10;fontColor=#FFFFFF;align=center;" parent="1" vertex="1">
          <mxGeometry x="684" y="861" width="50" height="45" as="geometry" />
        </mxCell>
        <mxCell id="23046e2b9bb16c14-96" value="+" style="text;html=1;strokeColor=none;fillColor=none;align=center;verticalAlign=middle;whiteSpace=wrap;rounded=1;shadow=0;fontSize=30;fontColor=#FFFFFF;fontStyle=1" parent="1" vertex="1">
          <mxGeometry x="734" y="866" width="40" height="35" as="geometry" />
        </mxCell>
        <mxCell id="23046e2b9bb16c14-97" value="VHD" style="shadow=0;html=1;strokeColor=none;fillColor=#FFFFFF;labelPosition=center;verticalLabelPosition=top;verticalAlign=bottom;shape=mxgraph.azure.vhd;rounded=0;fontSize=10;fontColor=#FFFFFF;align=center;" parent="1" vertex="1">
          <mxGeometry x="774" y="858" width="40" height="50" as="geometry" />
        </mxCell>
        <mxCell id="23046e2b9bb16c14-98" value="3rd Party&lt;div&gt;Integration&lt;/div&gt;" style="shadow=0;html=1;strokeColor=none;fillColor=#FFFFFF;labelPosition=center;verticalLabelPosition=top;verticalAlign=bottom;shape=mxgraph.office.communications.3rd_party_integration;rounded=0;fontSize=10;fontColor=#FFFFFF;align=center;" parent="1" vertex="1">
          <mxGeometry x="854" y="856" width="54" height="55" as="geometry" />
        </mxCell>
        <mxCell id="23046e2b9bb16c14-99" value="+" style="text;html=1;strokeColor=none;fillColor=none;align=center;verticalAlign=middle;whiteSpace=wrap;rounded=1;shadow=0;fontSize=30;fontColor=#FFFFFF;fontStyle=1" parent="1" vertex="1">
          <mxGeometry x="814" y="866" width="40" height="35" as="geometry" />
        </mxCell>
        <mxCell id="23046e2b9bb16c14-100" value="+" style="text;html=1;strokeColor=none;fillColor=none;align=center;verticalAlign=middle;whiteSpace=wrap;rounded=1;shadow=0;fontSize=30;fontColor=#FFFFFF;fontStyle=1" parent="1" vertex="1">
          <mxGeometry x="908" y="866" width="40" height="35" as="geometry" />
        </mxCell>
        <mxCell id="23046e2b9bb16c14-101" value="Data Migration&lt;div&gt;Wizard&lt;/div&gt;" style="shadow=0;html=1;strokeColor=none;shape=mxgraph.mscae.intune.data_migration_wizard;fillColor=#FFFFFF;rounded=0;fontSize=10;fontColor=#FFFFFF;align=center;verticalAlign=bottom;labelPosition=center;verticalLabelPosition=top;" parent="1" vertex="1">
          <mxGeometry x="948" y="859" width="50" height="48" as="geometry" />
        </mxCell>
        <mxCell id="23046e2b9bb16c14-102" value="VM Feature" style="shadow=0;html=1;strokeColor=none;fillColor=#FFFFFF;labelPosition=center;verticalLabelPosition=top;verticalAlign=bottom;shape=mxgraph.azure.virtual_machine_feature;rounded=0;fontSize=10;fontColor=#FFFFFF;align=center;" parent="1" vertex="1">
          <mxGeometry x="1086" y="861" width="50" height="45" as="geometry" />
        </mxCell>
        <mxCell id="23046e2b9bb16c14-103" value="" style="line;strokeWidth=2;direction=south;html=1;rounded=0;shadow=0;fillColor=none;fontSize=30;fontColor=#FFFFFF;align=center;strokeColor=#FFFFFF;" parent="1" vertex="1">
          <mxGeometry x="366" y="820" width="10" height="102" as="geometry" />
        </mxCell>
        <mxCell id="23046e2b9bb16c14-104" value="" style="line;strokeWidth=2;direction=south;html=1;rounded=0;shadow=0;fillColor=none;fontSize=30;fontColor=#FFFFFF;align=center;strokeColor=#FFFFFF;" parent="1" vertex="1">
          <mxGeometry x="666" y="820" width="10" height="102" as="geometry" />
        </mxCell>
        <mxCell id="23046e2b9bb16c14-105" value="" style="line;strokeWidth=2;direction=south;html=1;rounded=0;shadow=0;fillColor=none;fontSize=30;fontColor=#FFFFFF;align=center;strokeColor=#FFFFFF;" parent="1" vertex="1">
          <mxGeometry x="1066" y="820" width="10" height="102" as="geometry" />
        </mxCell>
        <mxCell id="23046e2b9bb16c14-106" value="+" style="text;html=1;strokeColor=none;fillColor=none;align=center;verticalAlign=middle;whiteSpace=wrap;rounded=1;shadow=0;fontSize=30;fontColor=#FFFFFF;fontStyle=1" parent="1" vertex="1">
          <mxGeometry x="1136" y="866" width="40" height="35" as="geometry" />
        </mxCell>
        <mxCell id="23046e2b9bb16c14-107" value="Azure&lt;div&gt;Website&lt;/div&gt;" style="verticalLabelPosition=top;html=1;verticalAlign=bottom;strokeColor=none;fillColor=#FFFFFF;shape=mxgraph.azure.azure_website;rounded=0;shadow=0;fontSize=10;fontColor=#FFFFFF;align=center;labelPosition=center;" parent="1" vertex="1">
          <mxGeometry x="1176" y="858" width="50" height="50" as="geometry" />
        </mxCell>
        <mxCell id="23046e2b9bb16c14-108" value="+" style="text;html=1;strokeColor=none;fillColor=none;align=center;verticalAlign=middle;whiteSpace=wrap;rounded=1;shadow=0;fontSize=30;fontColor=#FFFFFF;fontStyle=1" parent="1" vertex="1">
          <mxGeometry x="1226" y="866" width="40" height="35" as="geometry" />
        </mxCell>
        <mxCell id="23046e2b9bb16c14-109" value="MySQL&lt;div&gt;Database&lt;/div&gt;" style="verticalLabelPosition=top;html=1;verticalAlign=bottom;strokeColor=none;fillColor=#FFFFFF;shape=mxgraph.azure.mysql_database;rounded=0;shadow=0;fontSize=10;fontColor=#FFFFFF;align=center;labelPosition=center;" parent="1" vertex="1">
          <mxGeometry x="1266" y="859" width="37.5" height="50" as="geometry" />
        </mxCell>
        <mxCell id="23046e2b9bb16c14-110" value="+" style="text;html=1;strokeColor=none;fillColor=none;align=center;verticalAlign=middle;whiteSpace=wrap;rounded=1;shadow=0;fontSize=30;fontColor=#FFFFFF;fontStyle=1" parent="1" vertex="1">
          <mxGeometry x="1304" y="866" width="40" height="35" as="geometry" />
        </mxCell>
        <mxCell id="23046e2b9bb16c14-111" value="Azure&lt;div&gt;Storage&lt;/div&gt;" style="shadow=0;html=1;strokeColor=none;labelPosition=center;verticalLabelPosition=top;verticalAlign=bottom;shape=mxgraph.mscae.cloud.azure_storage;fillColor=#FFFFFF;rounded=0;fontSize=10;fontColor=#FFFFFF;align=center;" parent="1" vertex="1">
          <mxGeometry x="1344" y="862" width="50" height="43" as="geometry" />
        </mxCell>
        <mxCell id="23046e2b9bb16c14-113" value="Title" style="text;strokeColor=none;fillColor=none;html=1;fontSize=24;fontStyle=1;verticalAlign=middle;align=center;rounded=0;shadow=0;fontColor=#FFFFFF;" parent="1" vertex="1">
          <mxGeometry x="120" y="40" width="1510" height="40" as="geometry" />
        </mxCell>
        <mxCell id="23046e2b9bb16c14-114" value="Subtitle" style="text;html=1;strokeColor=none;fillColor=none;align=center;verticalAlign=middle;whiteSpace=wrap;rounded=0;shadow=0;fontSize=10;fontColor=#009BFF;" parent="1" vertex="1">
          <mxGeometry x="114" y="90" width="1526" height="20" as="geometry" />
        </mxCell>
        <mxCell id="23046e2b9bb16c14-115" value="&lt;h1&gt;Heading&lt;/h1&gt;&lt;p&gt;Lorem ipsum dolor sit amet, consectetur adipisicing elit, sed do eiusmod tempor incididunt ut labore et dolore magna aliqua.&lt;/p&gt;" style="text;html=1;strokeColor=none;fillColor=none;spacing=5;spacingTop=-20;whiteSpace=wrap;overflow=hidden;rounded=0;shadow=0;fontSize=10;fontColor=#FFFFFF;align=left;" parent="1" vertex="1">
          <mxGeometry x="323" y="952" width="1041" height="70" as="geometry" />
        </mxCell>
        <mxCell id="23046e2b9bb16c14-118" style="edgeStyle=orthogonalEdgeStyle;rounded=0;elbow=vertical;html=1;startArrow=none;startFill=0;startSize=10;endArrow=none;endFill=0;endSize=10;strokeColor=#FFFFFF;strokeWidth=3;fontSize=20;fontColor=#FFFFFF;entryX=-0.009;entryY=0.502;entryPerimeter=0;" parent="1" source="23046e2b9bb16c14-68" target="23046e2b9bb16c14-66" edge="1">
          <mxGeometry relative="1" as="geometry">
            <mxPoint x="1346.3333333333333" y="566.6666666666666" as="targetPoint" />
            <mxPoint x="1371" y="658" as="sourcePoint" />
            <Array as="points">
              <mxPoint x="1326" y="673" />
              <mxPoint x="1326" y="475" />
            </Array>
          </mxGeometry>
        </mxCell>
      </root>
    </mxGraphModel>
  </diagram>
  <diagram id="RckzwF5iXn90woKl7oce" name="第 2 页">
    <mxGraphModel dx="1886" dy="769" grid="1" gridSize="10" guides="1" tooltips="1" connect="1" arrows="1" fold="1" page="1" pageScale="1" pageWidth="827" pageHeight="1169" math="0" shadow="0">
      <root>
        <mxCell id="BYj4IODatlQpI1-kctF0-0" />
        <mxCell id="BYj4IODatlQpI1-kctF0-1" parent="BYj4IODatlQpI1-kctF0-0" />
        <mxCell id="BYj4IODatlQpI1-kctF0-15" value="" style="shape=image;imageAspect=0;aspect=fixed;verticalLabelPosition=bottom;verticalAlign=top;image=data:image/png,iVBORw0KGgoAAAANSUhEUgAAASwAAACoCAMAAABt9SM9AAAAYFBMVEX///9yjpu5xs3S29+BmaXV3OG0w8rs7/Hv8vRui5jCzdRph5XG0Nb7/Pz09vePpbChs7x6lKDg5ui8yc+dsLnc4ubk6Ot/mKTM1tqoucCIn6qRp7Fkg5Kvv8aesbrK09r9G/izAAAMQ0lEQVR4nO2dDZuyKhCGxW8EKcWvLLf//y8PYO1aDirV27YcnnOu96q2DO9mhmEQ9DwnJycnJycnJycnJycnJycnJycnJycnJycnJyen/6Wa5rdb8HfEYv7bTfg7Kotd+dtt+CtiPsHZbzfir6hECId/3rRyIcZSIcaYfJL/i29he4wQ8f/JsR8Qq+cKkuXP5Cwto45yP1byfZ9nGW0mp5QngJh562qCpGrzTxrp7qfW/jZdQeYaFo+cRJkvCd0qjibfkfB4rsDYQNgRS1Z4/wDniZKyUb9kLh+UzfirMfGYXU6ojiL1OG1KJu2nTMf3yndPDxSEaK5Y/8V50gGkpOoprAx4Q2QMi46GhXBg+snbw4hfSjpLHoye0AkieS0ejMGwFickXkw9L4pjAaeJ/chj9PITTxttCIvVIKh7Fq+BlRSX9uA+NfzoTZtlYyJPwvJ5Fwi36MTjs3AGZeuN79Oy833xJPJ/YJ19Ts+U0sdhsU7L6h/AOpBrg4hv+NGpSs4zn3rKsrIkF20T5sJ8+aL8DYSnJBKoeFJPYcU0ER3YTQAwgrXE6vWwIjxp0hODnsDv6pizEVaq6DBBJIsyLpwzF00V/3aCo4QlXkkusLpZpDSBJcz4jbDycAILH40+e3McGtd5zJtbWEHcpV1cKyeVA6q0FCFewKrTtL7AOqf3GZEJrJK/E9ZApk0iDw8Rk0z4VuwHChZvWC1SHmlPgXgasCsspVolQdy/xiyh+sGYteiEL4dV3zfq0Rhf8zj1REjKlWdwwSIuxfjcr71aGlrKb2D5KnFUsFQa+WiALxdZvRpWj2/b9LAjBhKGCFqpgiVQUOGRpQxRoh9M7i0raJLoAisLIpF/3RxqM6zliPVqWMO8VY85IqM+DwLxT3npDVUrOpFERB0X0WyElTe0e2WAT+gbYUXFvFXFyigMlmyKGpJ11wAvJdsjXzyzS28ow9ld6vAMrBUvfCks1mM8axXeGXJSEq5Fu06EW5pLIiNwYTxZ0HXCqFKPys4xpz5N5rAe7g0jeJRzVfxKWAc0ZyW0OGaFlatEwfNECEp+YEUxl0MdBaeW9iXShW6WwXeC53lqXpthMV3I4pn45e462Sdh0YIUQ0jum4Vb8zFiSuNMfq9Mnn5giR5QPmjkiEcMfGQPmAlMU1gy6IjXh2knvB0WnDjwoAFKAs/BKneEDPGMlXRE47CVRoH6FdMuKL2mi8bGdoFqDFN/ZHV37lRZqglElJdvbcRAO1C6CVxBCwQHyNxTML5zeBgCwYq3wkq/yKkSxgU54uG5Yo1GOdvWtKAv5oIsC4QVa8pyScZn8jfWs/IYkZBWICtU8N+smqYiht2LQuYCwtI1nTWAtqXg+bklKPbhCI9w+Fxp600CYXWv/53rnuA9PcKGJRP5vzDpCsKKXv81FSE7OgBp1pXW4ZlC4JsEw3q1ZbEBk5Bn9wPDG33MZI9eb4GVU0TQ0H3pDUuYVvH5YestsMqCkOocF0uGJXLThwaJ79Q7YOUtFgEr25FFWCLI/5Ns64V6B6wKk9Y/awaGEy1PbBqryfa7Aguh9ngA8yZTvaE3jAlus4DPB4UznQzCVj7XJGHPSzEIJd8xEmNy6v1EYwPAoW6O9S2wnBVNP7Z22DUrLE8i59wfjkvR/du2tucP0S7s5X/qn1D9317riHkkjPn+68QrA4wLOFTY/tQk6+wiCg2NfU6zb02rDuk5m2vligVWCPfDJ7JuV/KE2s2wuhbPdBhRlXvdQKGlUFiEDnU5ltRKKXmiu2sdgDcsjw3zCqmwsVHbwxZQVxkrBXmnT+cwGgBaKyWaaDOsZ6914IgU+2O/nDVMT6d7Ehbjy98FjBReB+u5SmktMqzDOfP7TV4otTXb0sDKdWP1HwqmNfh3wUqP+HSkPDtsd0RUbcu2YFg5Xzs8Lma2+xmw8gGd2oxzHy75abRtbgyGFaz7Oz7e2+5nwOpC0V1nvq7kpzmZcNMVgcAZEn5zIYX2C2i+eqj3w2qOmFSZn8Wrufutqi3ZFgSLZlt+lZlpfQKsPEanXvgg3Z2MWCG05bIt6Ax7YA4XohWtH+rdsIKWIOGE2bAygJ6fTL/BEcEz3CZy1yF+AKykItIJ/XNvalgIb5jteQIWPqbrh3ovLEpIKJ0wPhkalhT9l7AQStYP9Qish6fv61b1hD41Nyw57bpaUVmEVRR937eFrmMhwfqhJrAm836QJn9+EBYbCDlKwxpM0oaf01mtyOthFRUv01xOTB9azdFv5/pWYKkFJ2rRSQOdf5f+aBo9DGDVYkwYi7dnjxiWULsW47WwjpOJvLIC34KHx66iYVA9S9fQ7bDSiuAqE4Z1eMiwxI+/FuN1sKobB2YV5Il3azs2wzIqK2+HFYjo7gsXz3YPwkJopVyrgXUf7Eoo9cLVJ8FiPUZ76YSDYfKuPaGNsIr7bpQdgAbg3SfBEmlDrwxLO1+/gdayacGwjrPGdJ8Oi4UEHaRhrUwVLsNaNi0Y1rxiUQN++FGwOmFYMinJKoM61vyUFjtE8AyLeXrW7KDLWD8IVo+xjFjc31Ix0cOqlnIt8AxDoM3Hz4YVXbtCkwIpRGspjQfPEFiBkADJwyfBkmUsKocBj+cN4zktTfWAZ3iYvy/dfzQsRvCYvA9PhPdRC3649Qw/HFYsRoXyqNn+OS8UafzCvJglsAqMB+mFBvNfGuHedlhiCB2qvGEwmtMBddKnWnbAGtBJhnefP+2Fwg/1e7DYAavHRBb9RF/4NKul1YhWwGoKUkgv5PFTGelVWj+0AhYtTqov5AN6OmShhUKNFbAO6LRXsBavTd4s7V4UVsA6XkMWMCZ7QJXNsNKQIBWy/MUVApsFDI3tgVW3p1B5Yfx8liVV6K57sAFWV5z6F8Z3VOj2b7MBFr92hrqLYE1h6a72tgGWX1zy96eKpBPpJvJtgCW874u+rjPUXwdoCazDKwp/i43+f8PCPS2BLR2lbO4NH4RlvvzeBlgxInsFy6jyh6vkdrdQeQFVcn1SQiRtgMXH3vABWNMNkIjc7TG+/hG8atIGWJeig6kbVmk+PalbWDtbYQWtyuCfhIUlLP/6BNzGwAZYZXhqzYsOi7DQHuoRbYDF+kvVwSiDX4RVQMverIAlF0SrepbR2HARVguOeKyAFY+TO9xoOnoJlmYJgRWwguLUS8uKW4MIvwhrtorLHlh5QZCfGVZKF2HtwbZYAcurxhkLowi/BKuA6w52wArQmGmZlEpFBq+DhXu4VmoHLHVhiPTD5V0vinai4iAsi/zsE3DJ4NXj+TW1NsGK5c4zIi1d9MM+yNlEuZcPYf+tUK4X4eNjTfXPEliM4HGd4YIfqiHM7b4j7P4uIiyVj1JNWyyB5X1hcsyWr8/Cu9JLKP/edoQHpgUtW2AlaDSthSRewhLu+q3Tl+kudrbA8gZCdnL5nT7EK1jT53KwnEYT1Zo2WAcradWF8AsXlUpY/vS53PWk68NvtSpvZ53crTawteowihLSxtmCaYGw6GQ4iXtZxGpkglFU0HjHHlhMJE3CEfWrBmDLmiyzwb3aFZmoDV/BRXrWwPKaUC3O1C43NIAFrQSwC5YXYCLCVqa7lmY7LMuHO0q5TwgaKD3AGxVsgNWMsHRb69sEy2MHRet8BBeUb7Ys3FuewV+O/CW3JDzTEKK1GVahW3RoFywvqRAh+44WAC0wKQXc8KRdGGYZrJFW1WUALQlrOgWtgRXoF+/YBstLDoicesrnXaKEFRwmkntizmEl+hGjdbA8Frf4VAx7ENZMtJjsEwpOFj5whn8Hlpd3O0zQfAE8CKvb9btR/e6wtqmkhbA8rxSuCDUXgMXqulTXtJXwVUY3shKWx7rjnJYq/nUZvSpbO8pMdsISCQDv73FJWHzqneDFH0uyFZaXl/zulmpgnmWkrWeY/DVY6j7V1TR2gRn8d6lU3a5qRVtvK55Up9nbTj175FDy1qbbbzr+zB3Kc1byo0hS8QIsGo7TiAgs992KRUF0L+iG9XkDvO+2Zr31UGa3szd6M/DxPA3iY6vmKfoagqVmODD61ZthfZbSMqK8YzewiLIlqh5u2aX0f6cJrOKonFlYFkb6Bff/Z40D6aLo9/TSFdKi+At3wfoN8X5XHXg0iaS0+gu3V/sVNV1U3t6fs9GtxHRycnJycnJycnJycnJycnJycnJycnJycnJycnK66j8+2i2ELaaKCQAAAABJRU5ErkJggg==;" parent="BYj4IODatlQpI1-kctF0-1" vertex="1">
          <mxGeometry x="360" y="241" width="69.65" height="39" as="geometry" />
        </mxCell>
        <mxCell id="BYj4IODatlQpI1-kctF0-16" value="" style="aspect=fixed;html=1;points=[];align=center;image;fontSize=12;image=img/lib/mscae/Docker.svg;" parent="BYj4IODatlQpI1-kctF0-1" vertex="1">
          <mxGeometry x="80" y="239" width="50" height="41" as="geometry" />
        </mxCell>
        <mxCell id="BYj4IODatlQpI1-kctF0-18" value="" style="shape=image;imageAspect=0;aspect=fixed;verticalLabelPosition=bottom;verticalAlign=top;image=data:image/png,iVBORw0KGgoAAAANSUhEUgAAATUAAACjCAMAAADciXncAAAAflBMVEX///8AAAABAQH+/v7X19c/Pz/w8PDl5eWzs7MbGxsTExP7+/uhoaFaWlpvb2/BwcHs7Ozg4OCLi4usrKx9fX24uLiXl5cgICDQ0NAqKio0NDT19fXLy8sYGBhLS0tiYmJqamqEhIR3d3cyMjJERERQUFClpaWYmJgMDAwzMzP1kUtNAAAVgElEQVR4nO1diYKiuhINREGNyiYqYivabvf/f/CRSlUluLW86Zmee6WmpxdEEg61VyUK0VFHHXXUUUcdddRRRx111FFHHXX0biSl0P8E/Ifv8mcn9G8gCbgJofSv0qDXwfYlGaQ0x9WkzI+fntPfT8rIKDGdRI7r6CldcVcH2itk5LP+FqzzLI8S+rOjZ2R0fzyvJv1iWKw221nvp6f0lxNZzHhfXDymYqJx62zCXSI3TcjcIuabH/sAXuhwuyVpNH+8r8HyLW7m97DD7D4ZZosngJTvoqb/SroY4T5pbgoqz0UNfoE/Fr0OtbukUZkDSMxqBFr9NQl/en5/J9W8lhfAaFatId/pA+Ofnt9fSVo+95bFPG91PFjgfG+17uKrG9KmYGC8DQAtE6qO3cMFGoT6yIlO7IipBqNMjVKrIVrxwbmGDJAslp3Pdk1KiOUnSeOxpPSkVHPkP9+LulzbNdVwrEkahz1MdkBMWhnQfG+sOsyuSOpQyjcWNC0FRJ6QYNPazngjk7jTalckZTknX22AuQ8D3LqPdvWzc9muSYpg5hlreck5KtW/JFvydMOO125IowY8NYxApylIDykRbvG41/HaLdWOB1hLkFBhNH9tWUVvgzmjRdglxG9IZuTjnqDoolCv5RfUd5u4S05ek9Seh/E9DgmlwrWIpmRad0FXfbmmGrUReWapssWqfGSMhO/lXGPuyFI89SjlkSJqteu7oczkZUk+XEcunSjk9PxpbA6lfa4g7Ep0PKRt/ojzdDbdz8ZrZV6QzmtvQfV9947GWEL8Pplnp+pAQZavsyCGDDAgvJvVApJKo6IPMMt3ww20/5yyaU5eEkN3b6bsqQBLvvAatBFYAHwjIVZwv1NyPmzhAJO5nxGdKcEv0bUsBBR50fNykGH1VrBpOJZ9MggEF7FexidCsLWceJyMs6XA2jeR8q2cOlPZi0aMGqHim0QuQyENupiKI4hRjN+s3kwlgXzlwMYSmjVPLo/4Cr5uTzyXb9UnKOnHck+G1CdDsMpF0y5W5Pi6jAZAL3rvxGoOlYMPazk1zU2uw2KRN15u1k4PwRuCpiBuzz89soteGoNZtKBJ0beKzOuPo2jPta36yPqN3DUmipnQfJZ41A3bTxfuaqgw5ZYPrX8s30ivIekWZrjpi8HAaCnVKB9vGbQU31OHFQf0P3wvfjvQDKvp/8Yd8zAL7rqu4ZHqC1u0vBDlc1lwL9SzEf6TRDAgP5ljDVYbLMgWhELYosyOOHD4U1P/OaLalEWN+uiZ5hQ+TCgHAl9JQWC+ONCvT9VcJOjl2Ti96hT704Yc+cpFrQlbCsUXyFI6k9OWFc3qA0TC6Qxot/wWK2tsjjpVk0OxuBg/PEjNEPtM/FngJGowVO5oH1x+S6mqnLhNzuiPPOG1Hjp2o8G3NEeD0Rr0R3jVTE87xGygV+n7+HNklL8SDb0mlHLuM6W2o8Rhmfq3PqUvH1yaUPsYfM9Ea9dyZ1vFrlH7s6xmuoviEGOqOC7dqF1TStHWuckzffJHHshfDx3nxQAH+tWpypNH6QOMlDVq8EinfzgYrscK1/MDu2TFLk9kA54zJUQ+RSPMGjJq9yfcQ7VXo/YNt+R089j8QkhPbvqn7UGYbW0+EoKq/njpJjKiFTXrRg4+akss+Plgwj2U7OG3oFYLROUmnhk1mEUl/mBcVw9kMKOWSezJ7c8DQW0fIsRavO8VCR8U2YJi+PlD1AwBaugE3o5PP3F1L12fM+v0NilizjF8zvNBiHrNYDi9viL93hyRi0fOufz9FdQhbBdlOuKVGQ2q1nT9dbUgDezhYiFdty8oNPAe9Ws5qNFkm6bUcWOwU05SFx1XFKVFc002+6grZBAIsjWY8tvdcZznxH47Voek6c6wwL1mgsFSJxX35V4ngVY5DFPuCw+bZfRZqxQqgMvJgpNH/UfR+xVqTcjMXSj7l7AMCS2bSuLKVfA49HJf9IA8fy4wUr5GzXkUAIR0seAxzDfVKPU2T31CurI38ZrrDSxutZulyy1jgpHza6Pi2F9gqO8/bde6Rs1mQmnps3OyZEfRlSvJ91QfrlCHHBIGuImaJEaDdypgPMVjCkfsBf1F8xGvolZz2qaBR4PX9JGoh+lKj8sKLqwG7Vn5yIW9llBBjUt2svSnkleHqWKonPskr3pi33nDa9IBo/nHzbNVVvHJu0r3HtU6bU/52Btm8y2QxFKNugJB6Hv95HY+D1DjVYL3bkOFPUNxMzBxjHkfeW3L6N7otWv/o7nMOkjMEAn1bjvnvey4jJ1ywa1i4xqeyeCya8J1Kjhj9aS7/lZCa8ojosR5Z5KfJ0M4ebQdR9DK1KPztF4L1vUvfXxUB/1HDorhFrX6bH5n3nPQD9aZVtGaDvMIsjdlzlP5GjPJN2V9xtoX3c/P8xlFSVQgNa+OTssdQUnfQEg/oyejXXse+ivjB7NJWLJD8n6QZlqjzuivoH7bso/T4iWsNjZwUdNXhKZFQxGbIJXPGp0D26zmt4T+emHxEyXPNrbCWdvGaB3XVivoRRVXrLjEPlubxkqCklmxWD57RA3UzJgDnvYqYVcsn3hu0b+m4qTuoObz4AY1eQc1IeIjjwGJEG2PRTJdMDuYt1+qklEbjcW18rjLavX/JXNafZl5wi8HOfCxRW0TQcmzHBi3jWyu9t7ipwO5EmqeVG79lZhUS3nmgzY88ecYqANq9WQPXFckndKM3tnzKA8eQXsydrE2KDkltWylvJZTcJstal+QgfXgWU2fGflRmNvuO4COzgrfIhU/fjPWunw+FqG2GOB50T+sJxUZh3KHPOCR8JkzorSBWh/F07LkHV7TvNtn0zamtllxGhHi9G74vhJtUIOrx4WtzZ3wKMCjuPkDmurn1jbXPwabYvExGi0W/+wTfAJfozbEnIejnAJSv+WMojjfqi39y2h4QRgRNcbTt+J3aw2O5JJ7c76j08UjDvHoucBphYPa16Sfceox8ikdlLhbkcg+mCnAzCtpjXqwrO0Xdnc8tzwNCRV6GQPOfZGgi6S0dbBqksgnbwgOWmvAwGk6aT66Qg2kAXWOIDdsvXIzE/Yy9gG8hBrgs+VLrRIhybUkx8Uuhj+G7AYpB6VXnOmmDY33HJVFkjLIPeJ3yChNptNpdWiCY1ALz2k6XyCj/jNP03TXu9Vrau47nIAdiXFFSTktOpuqHuM4ao7wKmpCTUgY7jiI0B2O8lLkcMRND/DZX9idhoTKGRmYIqd4RooVKavaI0zzRJVlsMxm16ghHVBjkZcrriRUZQtXfEyQrsaO5dxlvUCpMhmkfdKlr0uo9iEPzK3re/duFcH8pSt+iRqvCFnUnhIubeB1bvrZ9Zh1g6jvwsaoEUITO0RI/qVGbf3poSmYKVLEotf3iD/6eUnvU8spnfs6rwmRkyb0Lned+z7HDOn/gZchx4bq6iBq4Tl4Awa1IxukfcBpHglZhVaoAa/1qKXMm8WocephBuTLe1VjK6Fg5rdCDSY2cFC7jcGk2HukK3e/jFrNa7RSt34ISnICLOK9CjbsiRjYYL1vG16rRLwg8diGfKMi3hCP9xuxXz2K9YZfk9D6aY+pQPaA12Ysor+O2iLPLsRpW5wyDLrn3DGFCYqSOc4uQC/x2l56LmjYvKJs0ASrOZv2q5U1MLzGUdmFYzWX9vysfx21zynrqSn60kZKp2gLYPWbbcGHlFLqtZLQXUEq5djj2xQmhIORd5y+5VezVp6Hnper1+65Xd+p16wLW5U2QwNhNpoCo4LYkMMt8S5dL0kou2CHJWaAYcNHVVGIc7pK4umxWvEa6FvausN07TV6/PR/z7PuIic/4efjNN8D1KzDOo2FIlykMFuw6K8ZZvAlDaVjpUkrCWX/JTKuJU5VFchqk7DpJ8EE9i1QM5eb8NOZsncLomFCUQ63ipyNG7tZFBS8GBtQpsIs3rV0GuGDW99MsP43a4GaDZvTZipX4YtOXcFiIKJWvKa/bGzw2aN8s6SYSpDl9yE2oCfXaKCUX4ZUhBoHtWngsLQUZ5Le5PqdWpbaoUYaclM2YCvJKdvfolBHFu14zcSh5LCAvichASDqOJQYZIscJWk1TLiOol6Jd/4Sr/F9+c0W3jNJ7zVqIEutUGMJbcADqBncZrcgyEam6BXYpAgKj2X0hBCQFC77nOW+cBQMDIc5j4/Fp8l5vMRrq8kI78xpRkVe+y7UUo6b5sKRBkWo3fCappao6Sti9g6umbHO0v9xZwoz3scJEx63+bVe+XwM9teiMamXReC8fqIC9s3+n3oybVCrUVHk+xURX0Rp1Mxd3uq1+k7b6DWUkqWT0fbGIR0WwYByq8jzOpcrMZeLGRxkxC+2aLNebgBJIv1O9v60J/uJYO5usidu9v/FODTFmXlbJ8OsCpqq+7gEKpdjC9TIAm8o6QHZm3wZKqXiXjRFBYr5J/1jh3UDmxdERE3d4JGUOhFVNCRRcVSbBgbU+EjRrChqcMsyL8ahwZZyTjvq/q+5DRtqTDeYdW7MYCw1Lbaa63k26tccUaXn+Z5zpg7V2s2pUVEwbOxvJMkoP0UNso/wjo8ee4eqIkcuIu+GEn16Z7hWsUElRGKyG1pPK0GO1ICsxMzuX0VeFD+YNqjp9duMWjPPyTli5qoDm1zf5TddD23WYx+gRp6OpwWI5j2j4QoBkRYV3Ouv6MJP9NWcB2XSahHosX1PyMUu1qi3OQFbfrSMqAyVNti0Kg6/U87O1ktJOklwkeX6j/fAbuRyQ5q+P+baYr6g6+8E84CJDPp2ai/yGvYSwOX6BJAIP2nix5AQE6bH19q2NqhJmXDUQpEihYxmxlHvwi9Zy8EwG47cP7SkzQw4Fa31rkjYuiL6HnmoOtpVEjuFhFrZSbxqDSSUQvGZbwVV3HKPOPAIG38Zb0DQPqT/B2q6zEiQ2dIXZ3F17vtsGQ4h0z1FQ+op0kfCR95us7IHAgRPpVgKjNVtrhL0DupHGfDRNhKqIRrSo4EKlgZnOeJU9zCwtjrYO1qpBWpG7CtEjeHi+4A1oty/RjnX1RxuYrkd8on9RyNcVZFDavuCxK2R6sLy7CgL47IsgzixhabXea0y97MjOViEWCASJ0661M5AEgf1GHFyYg5sz2tSOxQXDhN9xxPRvZKo5aFXEk8xvZLafcx4ZYv3qAJ/1echlitynTN6bBFBD2MeZvO0QieuDWomOocxjvToN1RyNY4f3V5RpaaZhQdtiRpSVpG0WU/D65+dKDjkjpDCiX1MQUgPfX5mQ+tTNGqSy6zwlZPa39GlXSfItw6j30DNTG/iTA17nRi1hNXvzKgxqfPsLCrOCA5so/FjR+AROT3gOPWD7gG3U4tWpPbccpbasiw/89e0tAzQQML22fCeYYycrGhtuM8MZlBcLNA2EWpu159wUPMRNZT5jKR7kaPFVGeXJXxHSVN3A6D2PBNxRfrccH0+MP6fuyhpuq5nCqGKRppDrzcwj+vBpXs4KVN7hya9FbFWRW56svUIN/Zm9I/5nm7fRc37AjWzo5e54Iq2GDXtUCjy5Kbr35fI1TVqqhVoiIOKY5x8HGrOVg6rCR503Eyvfb22xRCvbTF7l5k3pSijSm8xhSrdcW62umvGb+g1Ret4m6gZRT/FPBe0zaLwHXFPIKFOBJdH2gCMf+Dotdf7cvH2DRKoScwEOX1rUEPRbezeL1k7v7COStJABJH3kQkq3s+JB9joeNVtzkM61oBn4Xge3NNty1tzLHkJZUtVrOAuYbN/raVik7CVtcBHqziKbvAajNZYfUZ7CDxDbajpo3DXtgxHcHB42fQ4KAwmhefQaKVt7O5i3n2x1sC8dbS1QyQHc+wyFchWQi/TN0MMPV4zIcr5auSOUaTQK2mGWGgJbbnkDzkb9TQxnwM8rz7L6XS8C7JBD55SfBoA5SH1W+uwPDMHB1mPknparNLt5lO7qMPVcXsyHjiel/PtrPGtudUTii62pIqq1B0PdDR38hxlNp2sdMv/qNhsU8hxlTjBwdddZTeYSZJQQOZOUDknZTTBmzTvSD7JYWhptO9TEmXn8/kU/cZ9U4N1Nj6fx4Pkl5eScnkKdeQd1PS6d6PZQpMoN4WsHbHgx/NE+IvTuP/799Gvz7FxNfRVkJ/uBJUhbVIEQTG+BZvpNJj7X79PiZKKYvx7CFfOtPVn715KOhIKqN0+lS0HT8ZfgMVEGw5TvuHzhKRVl9/LE1ejWDX3HVcSaEN9L7hzzvjCIUmFQWeOYYqG8jumAVNp6aC3vbp9It8wjM43DT5trlbvU3RF2O0PBvNwjvIp5kbg627XYPs5NGrmv4NwANk2DLh/MdwTi1Go5fDajuWNZCWda5A8BF9Vk1+bBuZyf5tWc8TqV4bADgSxnHLoTsCsctGEguoiNoFDcfbCVk/eg8zd5txY7qYDsqbIlBPnJIJN/34Zf1FK/o+R8cthX0nPokY1Fm/sdplA9zNF1xY1j/aVfB9eM1K+7JMtxNwWJzlP9kxNsIdpQ0L1b7tAyN/qLPx9pGVwT16Xz0qe8myRm4KkT/xyDYLn5Xqh0lt9JA4otblna02NVIrv7s2MnbRRIzPheUf6KOp3sgaSKhGGz1aTeX6qDjYTbXd/ZXudHew+4PsAHe13wgx4zdn3x9lznhLRu+BWY8UDvXfXDvecf0OS+vMNqFSYclIXPt/A2ASoubjveCu1f5+kWF9IHFP8zBYNC/giYFLzK/PIHT/vi58UsIUNwGNW7isDSZlS+LQL8ETzBvIx5Bv5Z7ckM9JqJ4OX2W0FPiMITOmBqpb0BkFpsDdGrUzJNxtQ9QDYCNeceNQsgcS94G/n2DoEnxhn3I5hxC4E9HxtqSsrudJgVkDfFDSBn7MHXkZOUAB2CfU1+smrG2y9DcFnOmIMPmBVj8vrzXH4TMd3lcX7JE2V2jgeJVd0Ja6rhkpe/Gae/wuEewJovf/Rw13cNEIxfwTE2Cyg+uF5/lWk00QFOWxHYjZYz0rps4gsZkdMSn9wNCXWbJsoLUvrPoP7Hmk4YH0zJnAzkNFkYbNtp3cPA+4QdIzs3QTt6sgLlPWR1c1i144MG0Wk2WzXKhcPTl9f4/3IeBljTuba5k4TTn2xIO9dySQ4KpZICgjMj0Wv02h3CFcXx7y5DUmpYbWks5/3SGIvWlzZGostu9ws4O+IyPiwKucWBKq87HU6smO1x6SVW7wveKcWvXnczTr0jq7IhFHxvDr2i2Gx2lSz5U9P6V9AtHGpiNd5Noger5HtyCEpacU5/v2+9ac2JAVn1qTZYLZz1L4kiYVQxVz30zP6N5CkLmKzUVHHaR111FFHHXXUUUcdddRRRx111FFHHXXUpP8B14jgrW3Cqy8AAAAASUVORK5CYII=;" parent="BYj4IODatlQpI1-kctF0-1" vertex="1">
          <mxGeometry x="200" y="239" width="75.83" height="40" as="geometry" />
        </mxCell>
        <mxCell id="BYj4IODatlQpI1-kctF0-20" value="" style="shape=image;imageAspect=0;aspect=fixed;verticalLabelPosition=bottom;verticalAlign=top;image=data:image/png,iVBORw0KGgoAAAANSUhEUgAAASwAAACoCAMAAABt9SM9AAAAkFBMVEX////mUizkPwDlRxjmTybmUCnpb1X0urDlSR3lSBr++/rlTCLlRBHkOgDlSyDlRBD2y8PnYULvn5H0wLfztar30MrwpJf539vnWTXxrJ/99fP419HysKX75+Tvmorsg27tkH7qeWH87uvshnLpcVf1xb3oaEvoYEDmVjHjMQDrfmf53NbulYTtjXvjKgDoZUkWNzM9AAALAUlEQVR4nO2da2OiOhCGJRcEEgwVlYtaFe+11v//7w6EixIStN1T3dU8X2qXqMnbmclkEthOR6PRaDQajUaj0Wg0Go1Go9FoNBqNRqPRaDQajUaj0Wg0Go1Go9FoNJqnxonj2Hl0J/56Ar8/2xIGMhjZzvr+9NFd+juZThaAQYtgowBjYkEGFgMtWJ1kFAIbGTKQDbZR8ugO/j14K2BhqVKFjVlgMXx0J/8O1iETbQqShn2x7frRHX08wy0TjQrTtW83zYu9jR/d2ceSLEDT/0DQ2cjiFwKz+NEdfiBd0PA3w6DdTofJgxeh/qO7/CichUwTdOooxUqt7uPRvX4MAZGYVWpYWSB/U06OPeMV0661JFplsOxiv6cSy8Dg9bKIiSvXgnA/O1R+iJqSut1Hd/7OjIDCcKwRv74rNCKrftNZweTBvb8vSq0MOzebKE+0sC0NXy+l1qCpFaa5KDAXK85bpKmCVFbwOimE14xX+HQwuFqwWNXMMu/DYamaiPsq2fxUNn4Qx5DbUjHXDVlhZnKxMHuRQsROljOwoOPT/GdOVtgCTqeD5RkG2j50DPdiackGn4kUFvpwRpaBFunPhbzMZdifjxzEnfDkfgVSt5rYBt6V7VJn5TPjpFmAKN7x/GHLgXK3oum1BBhkWbUMMXdJaYTLwOhhg7gXc6kTGmiVXdxhe1C1fLcg//mm8EPD7j9mCHdDZSc2TzPnBJyXyT5b5T+pQizuus/MQlppSMfNRZrA8Nz04L7nLyTLw5wLn31GDgrDwm/8sudG57bxvnDJtbK65T51uUZlWEWoCr4u68b7shZzUkWtpzYt5cwGcpGm88vWld2MlcvuZ45a74qaHs8+U5LahoRR/bZSmVZR0HlKoGLMULonuKpeDVVRC+O79f3eeKokgEnPzMzPLw3VhMieNo1fKsI7mUmbn/PTbKEop/e0K0SVM8m9sBOcX46Vfmjdqe/3RjniG+Y0ZarFgqvv/T26/q8dwFD50rnSoGarCloXi0nOomDWX//6Xr+zp+H1Vj9DVZm6JbVUhbvGm3cE9SwOdI+/Ild8KB3BAcXK4xdQJQ5WdP29qgwtnSbrDUOMzcyyNgBiy/6NnNXcl/uWvyhWosrD4Q2bpsrpsEz+S0JMi2zCtzAyJB/1p+DqdMovijVUZVmKybBGpBSLHWoNU7HKJWVC+Ymc/xsA7yBWV5m/37AJqLYs4d0XYqVvQub/Powpu4dYyvGKE5oMZcwqyoYVl2IdmGFfXLr0V0eyZnAaL2T/MKaVJ1Ritb5BzpUWc9WE1ruhPKycDcW19KVYaZTMzuQczFXccT5tAIqZc/1hMUaWZbvhZuV0xisGdpnTxu8GY+HFnNNdQcC2ER+dc/COhMy73e4gKcXqnhiwl+fK2mFuMECWRXTwTbM0RG9jFmYx2DDGTlGLYB+q8aLNdbGUi0ODzJViBczIyvhDAMbOzkaI8OJGsmUWZAxawMxtzWMgGLmMQgSi9D0pNqKlfwWYQgYAg3wVGnyB1D9S2cH+wMU6xVuQfhYhbvmtR9dmLG3v5v0aMFY6zppB/oeNQ2qnLShlnnK8qjTrYq9QiXImbSRal2JNbP53yBxnRYG5cjMTTiiCpn84+CeL7PgXexSb7sIb+gYGCQLH4XhiYTsfa+AiMAqSxEckK6/Fx08To8XnfJ6ZkgOMLXbn3nhtWriYlRfQXg2ncTCjlC9bB3YVZdYw94ITofMgmXbDvTpYK4tSN0T4gWrzsLEKvxDLIRhOuFj4BN7LBhsCC8c99qxlLpYBuNvFEIe5HSSsSEl2COT+FGOSO0BkXcQsA+1y/1sQ/lWdCesd84vvlhtIxRqDXtGZloqJWqzrc5ZytSMTq+jDdIswj+9jahR20sl88vxtGPNirEdL6/zslacCjoRmPtKlVcbsQ8CXoSPrcjbEhVMcWF7ApOfdTNLLvrQp1sCm1+tKDTeE1Cr+6drmcln8w8SiYgLScMNe3/f9brQCGOXDSy2rV11fElhFisjivfdoOcV0YfmqGKOJWDmHOiCfd+tiVakD4HVI7yxuqjyWinX+khZmQoCH3nC0omlwxPkJ5RbeUKqTTYExi8ZrQS2hohViowdTLELYNneRMb1oQ/A55U/NYZWL9V4NpxirD7k0AO+mQc6U5a1UYvEspW/Z3bL9O8licVOsxDXo7Fqt5FNIlfLvDrrHEFC3dXkYuRSEy8k4ln1MI3UwIL8Fb3csY9e4EoOHGVC1jUtzKK/7gljpvILcEostr4qVGgQr2zNrH0sDfOQiAnb91m28xoqlKibHw8mqRerAjIaVNThiZUtIaUMMvezmzot/uhQrBgbsCL+0iYVPo37J+7AQq5GUcrEgF4t8Vu37eYSqlr6lWJ3hCVjIApsWuXwx2sAbMvcGk8an1FeWl6lDQZtlZcFMLVYMyn2nM61iHQkTFJCJlU4+oy1AyFVbSKNQehF2b6cnzotCqfSKWB14kdUFjM+MarE6rLl91CpWelFINOVipUxN0pKNN0+HWt8/BjNqJFxCRntNrA9ynrgHNr/QItYCAdFXWsUaMnEHpQurxWtdrKyroKOENJKlRk+u0czksXBc8ppYPj0nZlvMM84WsdLWR+HTWsXq2Fior3nnT+jadbGWhKlHKuYOPzgY2ry1ThzMNbHSVSYrBhtBYubjUYrV2WFQetEkt5DJeXqTiDWhVc4bLDPZYtcoUrU1KGbusn+YtCTjkgOP3zwYOmqWxMSl0lWxAheDz8CJD0dWHHluEyttzZbjOJ5OdvCL+6/HsDFOBtmfWSJWx7RI6CdO4n0AxieHjx4Oh3E8nrlvmIsV7bdZD+MFcdUL6awI0AB8Zy9JdhxV3Ea7KlY60dhWVkewIMqjQJtY6ZvtHq862KC4ZBCcptLuRC5WZwFIluhRm224RcWkh2n6Ae4yBlysfpqxwdMOWG5ryG7MZN8LW4FEq8Y2GnW/xL/X8Gtf81VnhAFjIKwC79d+nr/q7vej6lVUa73rl3+VZOMyYGdXnS+3miy/3H3xylu5aXvwUXYjXma/Z7d4G3suz/SYJc2u2X53m5h889GilXkbq+YE8eNjNPF0+o1tsjiY1qbc5HDlLzwN6vYeBLHYILhWlpJvSaNbkb0ZPHJD+ndR1zt/iJg4PBORpIZHwK1IytI/WjH9I0hu8RJK6G008zTFwa4nYd4I8X8k1g/WS/8QSeNOwz8SCzz3QzEapvUnYj23YUmi1h+IheEzR6yMCP5vYrHnf2RBiH8qlrCFf8tG9r+OsMJDC797G75Zl/nbxbB/kVH9nBaCt1LXij1xPnrBSn5CBKuQtu69yOOOHPn4v7WARr92TPhvYyp5wBFWj15W2IFPfDuYwFjyiCNl8d6R1UeftzLTRPKAFeWtEuPmwd0XeErBJZ4reqLylqXGCUn8YlplR7pEtRR38DTufkX0lXwwZ4oEi1EcaRMf69DbvU5sP+OYQjCyZffwLIS5kDVOarwIIyFw2QuxjBCb9XNKyH2lZ7LVCcJ6DYLY9f3lLq27Kt2+wnpQSQRqboapEZXhOxihupS9l3rUn4z4WN+1wRajm9lytmGs/tjzHpg/dxH5JqZL8WnwCBFSnwOxBY6vOAlKSEY2U96bk4UyRkbaqs4Ml5BZ0ueaW8w+vt4Dgq8xHpn8f/wgiFexEOnZkLHV6NXWNjcTrKP5hxkigkLzYx55L50paDQajUaj0Wg0Go1Go9FoNBqNRqPRaDQajUaj0Wg0Go1Go9FoNBqN5hH8B+j5tp8DPZ+CAAAAAElFTkSuQmCC;" parent="BYj4IODatlQpI1-kctF0-1" vertex="1">
          <mxGeometry x="360" y="160" width="71.43" height="40" as="geometry" />
        </mxCell>
        <mxCell id="BYj4IODatlQpI1-kctF0-21" value="" style="shape=image;imageAspect=0;aspect=fixed;verticalLabelPosition=bottom;verticalAlign=top;image=data:image/png,iVBORw0KGgoAAAANSUhEUgAAAOsAAADXCAMAAADMbFYxAAABhlBMVEX///8AAADwWij5tRD5uA/h4eH6ug75shHp6em+vr76vw35sBHybCP2lRhxcXGAgID1kRr2kxn2mhfV1dVZWVn1jBv3oxVISEjyaiTycCL3pRT4rBP3nhb0gx30hxzJycn0fh4QEBCzs7PzdyDwYCf6wwx9fX309PRpaWkYGBggICA+Pj4wMDDb29v7yQslJSWampqOjo5fX1+lpaXwXi7xZjrwVR72noP70MH+9O/4qUFQUFBAQECgoKDxa0L1kXPzgFz6xrT95Nz5vKf97OX82s71jDD+9un94bX82Jn+9t7+8Mr3qpX6yLn+8u3ydEz0h2X1l3v3p430iF7ybzfzeEb3s5r1lWzwXxH0hE3ybiv5vqPzfDr1nHP5xarzezH4tY31lV7xaAD3r4f1jkz707b4t4f6yqb84Mj2lEH3omH6xZT3qVf5unf6xon2nC/5v3D4slH6xnj4skn71JL5sz76xF/6yGf5vkX94aL6xzr80lX85p382nv967j82Gr81E7944aJWI3HAAAODklEQVR4nO2aiV8TORTHC251umKrtogCa+2onZ725CjlLK2FFgVFq6vIoXKoKHixiuf+5zuTzJFkMmWGIp1x8/348QMzeen7JS8vLykuF4PBYDAYDAaDwWAwGAwGg8FgMBgMBsMslblbhXb7cDwUpiY7x+fK7XbjOCg0xjs7B/MTpXY78uu53RgY7JT4/cUWpmWpotjfPYwr84rUzs653ztBlSY0qZ0DlXa78yspTHciDN653W6HfiGlyUFUbOfvPLFTuNTBod83PZUncK2d+cmJu1OK3tL03NDQ0HRbPTwqSo2FfKeOfH5+oiEm5MrEeF56Pf4bbLvDCwN6oQrjQ3eUYcg32u1pqwwvDBorxVlot68WKd1q3F2YmLgzN12R6oUSuU6bMe+kIB6+c79zUGV8Ymo6b0Fq58CtdgswzfS4KBD1nfj1YK1T7ZZgmjuWhDlb6xBlX/m/a80DKC/GnVM4mtCaH5+caAwDphtDk/MDmEn+brslmOYAraLOoSmiCq7MiTUT0mSuPZ5bZ66Z1oHJu8NUq1JjUi2rBvNOqYmnjUvB/MK08bmmMDWp3M4MjtMHxHYMjxtJnW80v3MpTM3LRcfgpDPOeqV5o0k9eLLKd+WpzQ8dg6dHwARd6h1TZe4UvHobHHdGodigLdj8HZNRWZFvaRYcEcUVShBbuOWXxQ44IxdPXNMxaeGcJooVLQadMbFTA6TU+5b2ECj2niMmtrBIarV4rVK5L4mdcMTl8fA9XOoi3etCuSRRLuu23Smpg/vOSMVDj65dVLl2j3ZIu1261Rh6sLi4+ODJUGO6UsL0FhoXr1276IwzQOn+RYQH+ga3h+8uPnoocRH8f/9Bo4KqLT94KNo54uKptIRIvadPTJW72GCIPHz4dwM9t1bEHv52RFX8+BEiY5F8W5ha7Lqop2vpsbbNFJ49vHjv8bE6fUjWujQekR4XHi91GfBEm1pxYrueHa/Xh6K8dEnzf4lYdU2kdnVpYVtYfdr1xAG7zvrKJY0n+LvC8pLy5umllZUV8X+UJTUKKktP1xxw87SKer+Kv6s8l5+vrK0uD68PL6+uoSNzaWVdbihO7POt4/bcOk+uIr7j/pafwMdX15blLfV2qfIMVasKrFxdWnfZncLzqxrP8aJoGT5deoyu4tuVJ4jFmpyNy2sry8fn9CEpLyGev8ReldbgACwTZWH58RXN5Bl8WVi9av9NZ3MF0bqBvVoGklZIqVLK0sQqS3b96epxuNsCpVU0hK9sou/KG+DZM9pesqmKvbIGh6L0cvUY/G2B9ZdXMLD0UnohPXpBT68bqs1NeYDKtt5fC6svcKlXMF1bf0mPVulXpwXN9KUD/qCtunGTkHqzirwubEpabxrtJOualQM2m42bfxGQWkVeGlYIL64oZhtGTWzDpk4qTeuGYYC+Us1eVo3a2IT1Fzqpf91EJ7GweVl8tGrYwdZlxeyFzYO49vIyBdRpUavIK+MudhSrm5vGjezAq26aVkzZutRkwzg+txWr7iYDYgO2ti93U3iNtdnp7r68bXx6eS13YXetGzSl3d3baJvytvjkrPFafK2a2Vrr1jZd61ksOb0CU20YxLuq1ZtjcPnQvDrbfZYC4fXWiNjqnOHEbndTrezGqzM0qSIjWLPNc+KjHaMVu6MYnbO11urrM+fozODNpEcGYmtqFzu2Xq+SWDpYdhKjWHp2/g1tzc6eU41GZijv7UPhzXmq1h3cbSj2zM6brWq1NrPbv6upfotYjdj8Xm125DyNEbwAru2eP39G/HfmfD8QpWqt9qNW2zYvibfeUsXu4q0KM0izt5qkd5hRv63Tk0h1dqS/v/88wQ65+Aozb96OSOwib6qE1dvasbp+CGpv3l/oJxkx4/YuYXThwy93tmWqs7sjO4TetwcvvhndCO3afMVCajOz7y9g7B3kd633Asn7+rE42zp13PfeAxyvftRJvdBr7z0W4V0vzseZJpeD1b1ePXtOmVdxpgjX+z4YxnH9k17px3eOkSoK6OvtQ+nt25uhqq3O9vX2ou36+j6+f0dva1dm+3TszdQICWKduEc02n334XPdAbfhGO9O68Se/vRhpl6rQiViQVyf/UQ2csC2SqH6z2kSIPefD7MzIp9n3+2d6jvdh78/cHeyKXWdVoUTJ06cOkV78clBGQnj8+lTFvnkmD2VZM+q1D++t9vlQ7N/whr7n9vt8aGpnjzxhwVO7Dt3Vl21k1aknvzi1LQkUTtphX3bn82bYU3rl3a72xK1PwlOkg/Qdz/a7W5LVK8Teq6TD1C+ttvd1thHdf65/7X+/dvP66pgTPj1Px29XF2uH9c1bnyri5VurVb//vXbjy8i+9cx9tvtbIt81ZR8+67deVdrgB83UK0OD2FX9Qbg57/f65TTS/3nDQSHHm80vn/9+rleJ8/nCvUvmlSnT6tLitemb/9VpP50/LQeSPX7D6jV4UnYHNX6v+KydXDRb4mqmJfb7QODwWAwGAwGg2EAx3vjoQ6RVDbtbrczv5RgpANllD+yngXIkfXXKsFsB0nCcwT9Cv4xb6BYDASKPf4j6O4IEDI6pRKRlufCU1Q7i9ljWSSR8A2FQtov8WBLajl0CMdsEcRBZfBDqZ6s1+eLFBOq3rEW+hV8iFR7TKtflhqKe3MceCJ4fKNROYxb6JhH14PPDtPKeeVUFEaThzszKj0MtDAbSZjuUgGvRLJlR1tHSUs95B7jD0fF9dpCzzxYCIk014p7RwqfAFKLlB0h05NroWMhLfUbbaWLI0aOYJpUMWm10rMb9Jy1Q+zK8DEQaC2pogO1ZuyQkiDQIVN7H+d2u6WlJ7gBSXUZCsmgh+c9QT94wiXFZoLatS8JmyM5jvOD9n63oPTGoR8guP1BET91mcu2Qc3W/Fh6wGrNmsi2XDobyeYEzpPxRiSy8oxxwUwAxEa0x+dxi6kuG4n4kqrWRAQ0z3qVj0giBwy/4HJLb8GadouWWV5w57zxaDQk9aZTm+TDcC9MZMdE26DYddZ85ZkD02qmzHdLO0iED6tVRhpo9YdjyCbqDXLSZh33qFpVoE8cX0SexdNuNzADPUlvIjmthAuF8ZUl8FnMlgOJ3nTRzoUls1EzYwNcT2nCEknw8XFMUEcc+NoT1GkNgRyV9IXw9l5emicf0BoQf4pFsd5QIUmyZg9nEla0gv47wmZ2QGKaQNIRxqLE53eEEnStHZJWf4RsDsVpWgmQnOnWH8SArWmtQTAtOWR9c1T0rqekWMip0xxLoS8RrdFEPCERT2LuprBBIrXGEkrHcWWZc9ow4XNvWitITSGkeTLjo5BxI1pj2Uwul/YISmITn3jTPD/m66FpjfAeiCAeBULya1+O59MRzWVcazzDe/iM3JtXdkw5Rsi22tCa1yqNX8xDPNAhrRtFa3wsKYcBJ09TxAMSv5iQFWNEK7K/8tDBWBocFIUkr04VpjXiAa+DXjgysBYJwneJdBBue5qtNa0pJN15sFhUGNW0xrWAz8G2PnXDEviYTqtP24ahlpRH7SAZpmgNKN7IEZ8Bv8BZTvCqrVuZ6Bbmla41qGrV5kmAvmCJjW+iVS68Ud+UWEG0RrX9LwgM4uBHGBHo3siFrWpNEM3pMSxdFUG/RrUY8IC8FsXKECFsrBXuzD7s8/0xUitamMPBlAYXdBvyYrbBUWtagyA2kAqR43FywMEAp6YarZSHqzODd+gPGWnlgJQQXqHJB0pEKxomcHSkB2BKUn6arWmt8DjdZH9Ngv68qutIUziFRBkCA5umFU5Dlihfg6RWH+KLT9UKWhUJ3+B6M183gbFpUjfBM2hG77rLBTJhivAdDjZNKwz5NNG/O9ZEqzqvoJAMhQlbeE1m/mIXJhPDelgADsZ5ilYBaI2TWtPNtZKfxCXMaPUDrcRykYPSvFY5sozOOXAoAlrdFCbmNWFxXslbCi5lfl59hC00MK+Vg9tUjn4KhNMKQlivFe4XxFIXvM3Xa5j4IH+z9apqFUCrLOGdbhM5CGhgcC8h7yBJqtZMlBKUcJ6oebhIWd9CzpRWF1jVcWJcoa0FrfJ9dZEWxWDtKbGj0wprgx7cZKzDSKscB/jYwMA5WCtYL1E8sclXsla+dILrqKOovwNLh6DjHF0rnCh8BbqjxlphSYlPrHwkPVCrBzSLoz4KcFgtaXWNQUlxIhoFL/RbCW+dVjmI0VOSLJ+uVX4ZQD5D+WLgQK0wiNGbeUE5T1rSKtd1HbEIumjHYAWmZXq9Vg4W5DF1L5CrNgOt8th0qN9NChnlVHewVnlUikHVVilmrX1xqh6DUwFw3BJPTL644oYqRK9VOaqHejJ+QUjmImotTdfqkg9tMS/PCeIJEF6xmdOq2CYivFuy7VFtLX5J7FYPg6FYIh6Pp6JqT9r+TdHq8mpmCfSmwUCrWz7bd0QTiUQspLU3oVVQ2kZTuK3VL8QNvmrGEg9Nq0t/B9RMq8uju54yrRXWExSsf/nPJyjdYHUyVasrTNpEiHtETKsrSB6PY76USa0uN2k7GrF0j6ghpMkxT+CJGQa67kjE42ZjAqGVMBDwG7oix4FGmlb6mQ7a4gNb9HsOqVXK4ug1dYTsA16JePXHP2SQREc5absGf1UC93ovWaT4tbiXRhMc6uBdeA/5ATCNIA+Qv3WQ7oJAcj7sH7AI/pwvHA5neMqXa4Kf93h46ukvmfYGApEM3A/EZjy8HQMGtJ48vkgxGx5zw194uZEQJNu7pQeEFtE2kPWOgWacZGufb3cZDAaDwWAwGAwGg8FgMBgMBoPBYDAYDAaDwWAwGAwGg/E/5T8x55muk+D/SwAAAABJRU5ErkJggg==;" parent="BYj4IODatlQpI1-kctF0-1" vertex="1">
          <mxGeometry x="376.78" y="70" width="54.65" height="50" as="geometry" />
        </mxCell>
        <mxCell id="BYj4IODatlQpI1-kctF0-22" value="" style="shape=image;imageAspect=0;aspect=fixed;verticalLabelPosition=bottom;verticalAlign=top;image=data:image/png,iVBORw0KGgoAAAANSUhEUgAAAO0AAADVCAMAAACMuod9AAABd1BMVEX////97iEAAAD89qAAAAP/9yL/9zf87yD89qL//NXw4gD/9i//8iJuZgNsZQZMSAtVTgexpwD76wD/+Yb//uIiHwP//6b/9CDp6en4+Pj//6X/+Hzh4eHU1NT99aH/+6XExMT//cemnADX19fLy8uTk5P89IvIwDji1AAWFhZ1dXVbW1v87zO7u7ufn5/89phNTU06OjqLi4t5eXmtra0vLy/88m7f0h7/+QCbmWIjIyNoaGg/Pz+FfxPq5ZQpKhpYVjhqZkL970D88VpeWQxAOwkRDwSPiRS+u3mVjQDFuhnh1RuAeBHQyDMzMQhERBS/uDQoJgagnC3VyADW0IiGgVUiIBevrHF2dU5EQio7OyaVkV/r4oL78mS6tnfY0E9QTjAXGAQAABNnZkmTj1CmnkXVzY14eloxMRvl4JldWy/g1Dl+eiVWUxttaiCQjCni4MOuqmCrpi8gICpfWgD/+rj//vA4My9MSjvTzXiwr6GQiTu/tVQ6+25kAAAgAElEQVR4nN1dC0MaWZamyqoUIaU8VErwgSEG1KDkoZJoIAmChCowKhqTuGbb6ZmezpjEHdvO9uzsj99z7q13XRCEIts5u5mWV9X97jn3vO+tQKBnWuU3Hy7fX5udSvT+2z8bJR7wBi0931pb+N7j8ZVmlngXbT5Zm/neo/KJ7rmx6oi31qa+99AGT/M8LwC4d69L8eDhx6OXdkavP579sRbyPKJ6+6yUTM3NjaRS8fjIp+N3by3AS8vz33uIgyPC2aNUfMRGqWS89PHdCwvx8g+itwhnTxxYKeBUcuTTs/c8lXLg8P0fYA3PIpp3XrCEgvF46fgnk8Fbs997tH0S0cYvU3NstITH8dKzDwbeh39qvFNERkc6gEUOp5KHRwbeJ997yDenxCYuysNUR7CEksHj9zre+39Wi/QQF+0xLtrgtXjj8cNXOt7Hf0p9tYVDf5W6HqnB4NKRrqKf/Pnw3kew+7nyaWYu2CVi0FiGAe4e79TC/PzCve88P2s4aEGTOS6mbG/kR7pDnBp5ttQ93sTsfSu44teX789/J9DzRCijCkdJym2PzwVHgp3VM5HnuWddyvPC8qY31Hg4PxR4rpGQWxdFziQpFitvZLphcXzkxNBXHfTz/DoRnkoxrarpYoU440fofj8fuhdK/EV+TOGcJCGLrwMMEhAvGQa4nT2i6YErNaQoiizLihJSx3j+WfDwBLzv5eEasRUiixGZYxCyOB+8jsXx0jtdntdYN5hFrLVFkdxBgv/jJFkMpSv/ATEWTtQw2Uu0MV9hYaUclnKnRKY7QY4fvqTsfeBdvjiblUVFotfLSTF6XUWR8rDwcd2vDgurnoMaVTipHV5cxdx1Mh1MvtYdaDd7cTbrBlZO2s5kNso64BxcMY5wl4eCdQqGIggCX2eKsVOmufJ4ngBuo6lTqY806n/oyGE9gXdU0X6ljWAwU9ahB3XuPvAF3vzW84erM6AXElP3Foj5A6w7qtiBsQ7A0wi4nWEC80uXr007g4u2v+icy1gZxGSa3FGaRrio1LcGj9WWOjVJ4Mdybm3MJtAvUkzqqLXiI7p7pa/EBDjf1ZBbcKQcXCKfQ7xSBuEewSgGLsyJR5SXTtoDXdkVaw3WSJTDbfirm6P1FbjhFDgUuxxjleTQdJVlifwFUeTPaL4GjPYh70BL/xDCrZAi9wIXlVZ5uq2KThp459EdrbIvQUD+J85ymSh7jCBXBgqW+ML8fri6e+YU5bNKOiRer6dscKmWZkh0kKhn090AsMzrSlI5GEwdX4H2ik0j3BL624PM0CeoEyHqpIQKarRYqeqsvlLlXvAixWT0poMjnoB4Tnc3cCJbCsdcJ7FTgMjXRLp0g6lP8PXNAaJ9jLd3CBa4cCIXaqXHKBuiPQo0jjl3CkuYpaPjJT3cL0psUx4DkL/yqkKleiT5caBml2Sddjz6EZw4WRQL9Sp8ehaVeuMv+oDUtfTCDSbRvUJjHmWqfIkbSYHAhyS0uuhlnLRzPG9CW6iVWowb48TLitxqwN12gb894aUXKI9TvBZo8ldKdyfBbWT9bDt1SGMRaQOXbgqztwOKeEn2NC22tzWyyEUjgFdVejNIhGLcaYYl0fHDF7h6hbRCowHnjzIIMIofodWFZQx+2GDQbpEwpzMMWSk0BD5cEDt+i0mApTzOMEqpkSNi6iohxr1zyFye/EWW7utBBQhk1S5eK6XA4PQuP7Z4A7zodiCDqVIeMf8TP3xLLLvqvWZsI34MAQl+gA5zMHk0IFlG37zeFQZFVit8jcOgpWeBRgZ7NFZq5BXxaYreuZZGML5V4QNlA+GOfBhIfICsnexy8BBpa42zdO/miExPLOdR0UEM6gBu2GsQQBv/xO+TcDCD30TJnu8b7SqqqB60rcLVI+oN4HIk+t/OuPDGD0lqUnCZBFjsmRToJqLDcij4aIaW+kYLN9vpbewKF60VuouNvBQrTzvxpkofiGsVdS+m3FwKlm6I43SrG/y1f0W1ADeq9zp0WW6pIX1MuV4XMZgkh0Dj4kVdVXONAhxIMEM1FCPiMBMt3WdabhnupPUIluClaKVceWNjW4rFevkxEWgbe5PvyOJtOLkrxcYRILHGmKYaib/qN/bDeKByU6mkg+JA+eQ3yjlZ6oHHsXIGPA7D58A1iarZzd18/CVRy7rVLfXLXEyOs53VHuBCiAfKJz+9zcViXSMmmRhTNR8hWiHk/DU4kK9RTyFwXLqowB/3gxazfos3sJ4uvACYZGkAcVnqUqpjGzZppnDduj42Prc0SuU7Nj0SDCZ3+nMxsFh5I+/IO3hgMIS0gHj8NCd1w2OMYy1dhVGCW5SlcuqdEYhKeYgOjvtj7vrA0HK6+zBCEGdOkcfXOF0A14oWcFHuuocSyxzyuvLnTjEaetEXc8Hang0MLaevYAPxRpnrpKwlmzAHg/GXehjgoHLqL6ru+pThu6mTvjo6+MGi5Sz/cC6YSqXimentW4pOsixTZlv8RkOqs5eYU9Xt1MUyR6Y3gKJ82FdwwA9Sko0R0lpJ6fjdq1c/v/v70dHJX//6t4PLdFRtLcLHCJszrJUybq3d9zzDzyn/EtbHR2xuqq98Kzqp/RkgL4E7TCQ6lSodfjx6ZTZR0TRmdawYLXBmHlPKmEYXVFDFM/Ox/Av9q7GMjvbmGTlMmt/AleoGcu40kwpi7+dc6Zfjk1cf7LnbnYpqFrvyJnchGAt5rrP995aOFsUA0d5clJdZi2VQFCsbMTyAjo+Ufnn26q2Zm9fhSlzZaGuIgwOpecYiv47KJtrgHN+PP4XxXs9BQZckUTdr3KyGpZJJWM2vlmhVokWTXBKp5hl6ihF7nupWmPAWtdTNlfJs335yR7hklBy2aZhOYioZ/Pge+btj6OaY6UN+4Bvesch/U8yvoXvRh05OLPHCTs4ntBbq2IYRAmB/cwoTUphB1eFKekQEfjDDHMpN/Q/gbfJVf84Uuo4tvxauRdu0WyEVf/3qxdv3P5OeGUth5IKmP7XI+LEuI1gmAV/qXh9o5xnuqS9o50iJ3tamLgg7BtqYvnTj71kqU083I9pPPP+oD7DUm/KbtxK4iHOp1OsPFlIBNVXamGZ96cKybD/zUoYs2/6SNWuYE7pZVq07pJIk0+z58bPXh4evX58Y/obAT1pfo1a3xIfbzjwEQcmX/SaVQU91uEXfFONyGyRQGEG/GYQZnOcR8LFoF5WVSCgTtMmf+FC7iceQr/+c8hox9b5AxY45DPIZZZH44Rmg3TdUsETDIRDVtr5Ojghy31X6R9gB4Ysob2+Mj2fyI2y8pR2AazMH6PQHS57Uo4U2CJzvN+lIPQx//CkJA4SYlCufTmPLXNAFF2TZ1kFJZDn5wRPRW59/Gkhx5DFMcsFHRcVh2YvzNL6msHAXMqWKyHLqGdPiciQldzKYdpN1nq/6CpaOlwa+cwbiPNa10hZzY3niCLdbuKepPnNwBs3AJDcGHdS3A5wx4IK/8YKv2m5LZPntWJuBTB8OqmK90n9auWuKWaXN1C8Q49nyNiDLwO8Ws/ckNn40sI7Wx6AxblzJ6hlvzqjVg5dv18Gx/BxW4TXWQGKZt/35yHZ6wOyq8YuUnB72lPhdOx/L2CnFC4xiPSdjaDsgsNj7J1QZ/R6+EBYXtklmMnnsiMCwrvcrKhHOYyLEo0E27yY2eT7SobFm8IhJITf+wq4eJSmf+nu6VQT2uuXs1tJAG9Gn4HKVG7QI3RguNiOjyXG8m4t/rIuKGFLdZvecH+wuA+zAwBrT8PBiM3LqWdqhlDY+kTG4WStHB9cgpsNdwsh+aGA5mllLHTjuKGf+wTK4So3n1we7YQa5W+yutX5ABCY2OB1ziFPuGSvoUxqD32HwHbh7GpxzZAEl+ZzlOyrFPivVTLjD5+4pMNdxQ4mRFZSU+qA70JFm+CFzF+N4Z4qXeXMlOjhPykb3hg2Xi02PO6u8rJvLLV/QkpxrbRgBkYVO3/HUmXj+uR+bcjFRlR5WhEBImr7eZRWrgza4OmHHmDpUYS5fz1wwuGCE/DhH45G+dXyg1JF95WvnVi7wT8O+wEXF7C2T90WShC0IfV1hRwQrtOTDBuT7Ay5iy6IcaqUrfZXXlKLY5H1wMQKkH6Oi9Bvtkl/jziIt2giTfv6+rqbJ5R1/NNUKKKr+OwJlCN1a9Ype6OLD/Sl6WdI+99VS054e2Xc932hssEzVeviM1rdIq0XflVNtr6+Wmva0wvPVGyfUJVnkCjpPdb7yA6g2yVr2C8ybHycHbN6otQhULzCVU0f3jW2tNurmerTxhPxj7BLKXvK+7LVGj+oGxSGAWohe8WafkIO6smmimNMKBU0LMeDmstndfjqI2lOCd+Txu4Iqcq3ivim+brBt61n2S2hXu6h4X1QOVO+ngPbCJyP0mNWr1Z4kRWwVz2iTAZvalTwcF3kDV/h60NRkpiuSzWYn/TFCM73EBrISqu+ypNdGbSuztsuA//B1r9lmgeea2WwTmevHGRiPuu5QkEV1TBfeSlqr3hyt0uAvsoU22zEk7Tx78BlN7kA3lusEeqpwfX5ZBraqu9TKRKLgDKM3y6TrJUXi9g+aHXrVJE5rHqBh8+HEjynnSUtMqOAVpiu6Qa1pIu6SgWClDdrr94E2D5qdp1eSuSZ2MPiQxtgie486QOUKtV2eirBwwSl0+iVuko022gXa5nVfAfoMtxvQ1mM7zdtSNpJu8vUXsFQVtUihPlj5jX9XumWOBlO/TLTXr9tsF2Dlc9QPPjhUMMSCaBHdGwALVeS0NHUh+Oerianffj2MT1uJNFm96bot5LryVVFRPR882lWe36mGKUUqldFaVEWKNnS1+wBPiV7g36VSziTpzg3Ral2Blc/x+oNnbsJz8LdFDx/T+93j+Y/J4Lh9nCJblHtxRDvDvgBZ9oG5ifnVrUceyOvLa9ZB2Ot4znBw2zH5LSbaLuythVbqYPvk832fQiEKempmdmF+DWhlYcGp/PEYlJfxvFPdSvsstN2Ht7IoL2qaxoltMlm5A35gJ0L0Qpiv49/adRQSlh+9NNpdkCEri+kIma7J6liU/Z0sKo7hn2r7nOD45EoHyxoLbReJGrRsKjpL1OF+c8D2mCXiLQ/9jOYViuNfboETwwy0Z13UDpVW2BZbvMkW2F9rYlQ/P2SwCf1E0QM319gm93rehhpLXyo2+7XXdE2QRL21JiaoBl/g7Eyrxor04JBY3uO1YCVuUWs2J/lHz3U7cODyJLVCDs/g0rJutFNrywM7pKgdGTB2PeMGPeWNdQvXOsrAt2wWYZBz6nj+c9P18eWXN2++fL108XaeHOH3yF+1tWri8Gy/4xYZvO2i+gBCmp3E6PUJ+cXFuTPvKWs0kXmRtdZtYs1wCHxwOGxknQPsDW/EKzfW7s7VgDAoAhZ9aosKzdfLnO3Skry3soYH9u2gliLuxdT9JesGfp7ruWIh8bb7Mvwp4cwrAl7mFrK1VSxDnU3u7oLUfvlqy8ZJof+ih1YALfH3EjNr5JBN/qymLrbOeF/V9EMLx75XTckMI3QlXnt8kaTt7fKVz5d7zUI5RzIjNt7KaoI6NKATljbXjcsWQ6KsSMjuTd+W7pQdh0cBSWCEvHpqDDVqZ7h7oIPOcxLznCPtamUqscoLjnM2KwVRlnLNrIbRtm9WadUOw7MkJU6cZMCtap2LS7K219Q6HLjXKuLeOKygFRvFWq1WTGsQc+fOLxpc7qufaG2CDOrEq4CUqBctvFHnOukqKXvOtUk5YpQAxKlfyXljnEozDJx2nr34yxj8F71JvwKjKSeOAmOIzEiIn0y3xSsBpHZ8jWCUcFVXITACLp5xSnr/oAm0d/EFt+ZBGIiBkV9H4a84MTA2YShpJlpYdZidZGPKsd+X0KBVaBqsLnI7mAwV1V26fqtpPAVTJkUTv7TUEyeGHa91kWQmWiLf4XRIaXOAJIuUOiheWPEYH4VDUZrolmW13oCFi8dowA+zX/vdrtqBNh0nEAusrJOc9h5SbCGO1FnSz2IsGm9VlCQ5os8sX6UiICtW50ou+8WfYidSgv+rQwkJnk28OOH77QpDAhbHum06gesUgLFikd+JLmpqfZI1tRoWO/06E36WL71w6lzPCCRcue14K/Sw30ouot0CBodRmhVlUgh5hF463/Mny0xo5Sx57ARwxjgPWTlry1xWKNGGqKKWdhrkBuC2sHI+JMD3S0ndf5Mc+dUJoObNTWCfbTve1jo+GcDJOPgn1q4oRjHMWgJS9rOPSmr5a5wcCGQnj60ExdKuvCnwi731sGhVvf+qxSy0EiXlR3MRoQf/jgfjPzt1LmMU6C2zhfmqpzYHSbnSdxuA5fUWlCQInXgfn9Px6J+pkbnSkl0LCd4CqIRyx0Ir9NhYKKt6+5FcYJZZZVy2fvRAUvoN0Abjr11r0dPnK4HgsXnbC1agtB4TiZUrVnSUw2Xrl7UFc/s6RY8NchhdRupJHGOCrfbWnaTpGk1WI6yYEQS56mMAlOD/RZ5XF/zgXJdkn6dzBwgzk85IU3YmSf9XYes2kpbzTZANtGQDqZ25u55trSKzTHKzrdxykf2+hoLsX2EoYTyLEM2QY2HuhtxcC7F6qBhHK3UBVl1k9l7KzebuAE+9Z6HVz4sajxotqjp7J91bo5n+441aRrU2GWna/+hfOtlCm/F0DAktt2beZajlm/THsn1NSW5itOebRjZ1MqKNuRamQB4HYNdVircq1Ku9NYAx381lszs+Vq8BrfDRQEtCMRfzRp3JGLEieJZuxKOmFEXELpbep6CJaYv+TwnvQL8d609MBbQetQuqueUIETTGym25Vq6oRsYadVXtOjQyqJDNnvn8uLP1Y/05x3nClprTELmeByZ5i2AwIU4uYri0+/niUm31eEwdyDG2FPn6KMqHJ3a0nEiSMvbMDR8J2UO6HS9zHf4uOiEX55rUsyiDHGNA4O+j3bZeJe1oJVF1WlX4U7AdU8+oHAhUmRmsbQiqJC/2vsOskG1i2tyHrlYbLX9w8BZ7CJx4SC7GyvrLFd6N1n5qv8SFwZbK0V/bpFjbEsjxHtzYn8fYmXSff6kbXKNbTw5VPU6TdSqJLE0yIt20qcsk9Dghgviq9eZ2NLNNCON92ZproxWe/1BCtRy0bThk9MAVZf0RmRCYetB6jrHncfH2gBVin+yB/6wNzJLndscRraWLxKibtwK/3xIpXEZdSLA5GbohEzy9Fp0op2808HfVGmWg1/GR4LZN8hRss3cB5os0GSkRJ8QNeNISXClEvs5fNnPdPvqgSVWUj06jTnSwx8nghmNkStptWAX+DBP9EljdBmPpWrVQEvfjFy6z3ahmWBznWQgHBJ9tLSG9oHkSd2zxBzdSi7jQwnDGQiRQYHUE7hhneVBvmkzHZfO8C7gyLNos1hF9SzVadF8f7buM69h6WYx6+5OFNBZswCp7NbPe3i4v2t4/yHaxeLVstol2zY9tjG4yK5p/cO7mWoWrCZ69QdUWPpRT4eo77nW9SB9p7EhOXmSvk2Ypp28OGkoH4JQ52n3N00ssai5jhEDGsGoruVuLBIGkMZSixXT842sz29kUoTrGGH4IKgrpkTVixslmijaqwxQsvI2QQttbl56v23q8FyWyaJ3Zyy+ABuMDtnaWQYyzWOfyMYnsoGXb4IqK93k5okbk2Wl0alwR/vchPlN4ZmZhZf4ePsSmphDjYyHdOQDls3+J7GWLM2rj7N6+T5tHWGS1IgCiqsY4wluRolX3U3WJirZbjAcwZHfQcEm6Nvkve9lsgcVc3NCX3SMKz4/9miyaskPghTpppXANTZELNUGXY8EE60CLk1YUQ/QbVBA+g9PwmfzgK6A652RHTxnWfEBBXeIZvUNst7ctXBxatcXqdJMVsVWrWkuXYHa0X25ikkps6E0k6IwYyhbpMyLTKEoJN7blECvdh+tn75uH7jvQCkQJMbO9oJqijX0LsTOtgpfZ0UIC//mANgteNtEdXFqj3z77nMWNqAUtB6SdowwDY99QsP47USbNuNYjDK0WYpcAJAXbutKNivH4DZsbnyCgCqCUq3vNywNwLC5xZuYDiS39y5WDLAFJqZk9+EJnbTiPojfIIcoU8047vMhjWTQTNnZZXiVMrKkXX8LA1uYlxqv0gRMLz3VxOHvz+eJyb2/v8vLi8xejrX1+qGDJXiAXWvj/RtvWL9qYQA2t3bd9SBfC6MXBwcXXSXIVI2Bd2PLcg9KSrzlGFt3zDoKwrqJy7G1LCnocKxSuzU5iW73teehOVTu1uu65Af9w2DsokDZ/4t32lNJkrSAq3vZMEQc7q5suewS+7Py5K6iZWnlitZDyD5+sDFE52Wh1X39iL4PD1fqi7G4yJlZ1JTC16YGbWHlsaIHNxywwicTMwvz8wr3E8Hd4GTTFHxoPoHahJTMQrhcU+xqmLSew4BJkj4e7lp6YmQX6Pnzrih78lEylDt978Rq0X1SxfZPKtEwyU0TbrpFPl78fo25CC/whPmPi9U/s5UupUm+R3ZYStvAa+cEEVehD16x90fqrOMJNNiNMoIKgT0Ok3srJenFMZ2iCbPjgV03+Tki3TJImMtarO+XAbdtn2yOc9UL+nfx24471Vi5QvsWiXN9oV/gSSaFvi60rdquQ6Rzz4SIN5K29laBswbxsPV4hiCdijVGdrmIT4+qV/mKspgRuh4yPxuq5u6Er85U6Tq50pzZmvJO+FbhTN15ZNFZU+kYbePQuhc/QzuO2WXpMTTuBNj9wPZcrYeiliZD1WDdAa7VIRu4AWvPV2K2JmHXV+in+9NtT6530dOCOZ+sV0Buxf7TzhLlBspWcxrNtySybtNFNEyFrqyNBa8xPRLTQCoA2oETMqYNXQLdj1mS2goE7Y4wNHOEBoA08f4flr7kMsTSKWGhMGtjawm7T/OJBa5AdLeC7E7jVMNHsit/gp7+bO8sEPnSXiZYfCNpZunLn9HMCwPNX252mZdB6r2jvuNBO2xqBn07AT/NGZwdEx0+/+Yg2sPwTMjeYN90mABy9ao8V6AmzJNct2luBoG2T4OJd+OlG2v6xn2j19po520kBkiyG1MaZ54YWrT/2Fqq65+3tkGOZBlC0dRLSp76iBUVFn6PhOPMCOCwW0mP6oT0sTm8+Xrk3g3Rvvle0355aG6uiaIIUqxau5v1FG1j+Bynk5t1JKQzfF6O1CPsgF5MezvaGFkT11qj5sraNlnrXfA1Kyl+0gd9OksjevBMteSUpiihqLbXeGKtUd/cnDfF+srz14MGDreX782YY0D1vbetUwJc2yd6PTfiNdoo/CSJ7M+32Rch4GitN0elcmPdepQe0eUtNheVvgd+tfetXiMlA69wHMCi0gXv8zrMgeMwZNliD2ZK1LZdhhXpAe9dWW4jdDmQsTwQF20Ar8OFFG8UGhZYcln5Siqfy17V2ScpoO+b2gNa1UDesLlk1E7BJcuTOXRsNDC0NWF8dJpPlax41L4WogHmz/D2gDdgqhWoqUG6YzkzrdwfaW4ND6IXLv3j2afpOZ+5i4hHH4ilX9YJ222gTFjAKEC33XJkYClqES27x8z+3xY6N5eDT4xc9dVcn2kxHtDZXsbb97emOwdoqcZvdkjzhA1yz6Cd8SWtgedpKtL6vwp2BsqMFs2WLgbxobVq4csums4qopEwtJYRDQIuhDR/QElVlULUR1USSn/HkWWUxTb7ibg6xo61UKpZ0MtBOKObryac2txnE2o5WsL05cJrSC+7GbSK1dEsLSfS4QCT8K6QVVOpjPFmZmbLFuja0TmvJQBuwnenEbVtivfi7Ha1jCgZPCVuW26CzargyRo9rAH8qXJ3k7embdT1N40TrJBbabavjufC0aM5S6LYNrZPhfpBrO31H+u/H8/Y0Rk9ox6Mm73YbJrSw8m2oaN1nJbhJsP1Vcdr7ntCCmjJbcKyLjpLPhog2MOWRZkHwxnzkrcXtu99uiPZ2iFWQSZ8OG62raN+GCEPOorE75czvd29PfPuGAHb3d3er4UhlbBTWeT2djkZVVQsV0gy0AYW11bWVGj7awL3n18MtVgnesbraWgSjGAMiddCQphUKLTWaBqVWuUoX1CtvFg7plrcZmmTgho/WdWSPd1iRKCc6moZ2KDm+tdNQCzW0VSxJxkycl7dPv30XtMbhX/qc2ylSVENY+ROLPJuo1gGoad3BYKJNMY4/rehusRnfDgstFee3O2dAk5P7+7vVamSsllYXwaWkVV1JYteOYJBno2r5FvGTaRGJhfZ2zPtDWjiwod0vAjXUIaAFT3LzH6V8OUQ2byn0AGZ7/6ccYvSiIxzgqhEDCW15i6GAm0hwG7BHBeI2UDk/DLRgfNdPSuO5mOR1lpF0f9lkKRYEx6IaCvB1EV/AkYkzaPGuG61vEV8bvM+PSuPlGAMr0qSTtRVVi9JcaRdoTz1n50+GJr4z2kBg9sG7X/IbOY6BGPdummO9itKaCml47AKtGeJa33sa+O5o8czFP05K+Y2yHDOeD6rLtRgxVm4lGrqVsafWrkd713NAZrHsRCtgNH+b0gTQ0ADPLv9x9EspM71dzkmwjDn4J8t3dJN7BVDHb/eUqQk4M3E8wWYoKVvOMYSei06DyzleT4mFJ5vvj45/GclnxqeRxv91hEMaVUPbKTLtPaINPHVYMEHPwNnRUsjwH/RcIgPLJ3dJM6vkbM0PL1/+8Qf2TEWKzdPkbePTXtGWa86QimbgbGidNLjsefeUmPmfZ//+3GjUDv73Pz7ZI6De0WZcaooWrpH+36DtQL2ixUycHVTDUFI/JNqJp05MaTO1+COi/Sbae1oEI7gN/JhoA2VnFBUy9d0PiXY6bQdVjZk674dEG3Qc5nRloflzoO2uF85Ea3uTt4LbAEHrpf9vaGMR/ek84Sr2ORrP6gk3EK35UdFEG4iNhU2qtqwo9k7xTdhDozaOpn0AAAAtSURBVAPocxwgTcSsBy/FJjKK9RQmLnDb+kyxelFztkc1iYqVnc4popcU7v8AFUk4PP8pwJIAAAAASUVORK5CYII=;" parent="BYj4IODatlQpI1-kctF0-1" vertex="1">
          <mxGeometry x="500" y="240.5" width="44.51" height="40" as="geometry" />
        </mxCell>
        <mxCell id="BYj4IODatlQpI1-kctF0-23" value="" style="shape=image;imageAspect=0;aspect=fixed;verticalLabelPosition=bottom;verticalAlign=top;image=data:image/png,iVBORw0KGgoAAAANSUhEUgAAAZkAAAB7CAMAAACRgA3BAAABs1BMVEX///9qx+319QsYGBjg3yEAAAAAChTn6OcEBARzc3NzwOAeEQZzzfFBVl7JyShzyOzo5yEAAAwiLzheXl4AABMOAABv0Pj6+oxGa34AABYSDAjW2Dg7Rkl10fj7+7ft7u0oJhhch5lSUh2ysrRpsM20tLRTe4pMTC/a2i4AABqXlzDh4eEfHx8UFBf19l1TUEdPT0/19TdpaWklHhspKSkPCwD29hd+utlSUlJPTyJCQii/vrUWEwCoqKjU1NTO0D4RGCDIyMiHh4eampo8OysbGACwrw49NgAqKQCqqp8eHABFRBTn5mQoJhfZ20LOziYvMjSsrUS4uTknJgBsbDPr6z9/fndBOwCCgjanpixhYTU4SE4aAACXlk0nKiyIh1w2Y3qwsGhgmrFEYGwAACUwLyiIiEpqaWGkpUs7OxkwLxvPzmPp6GF6eF/e3pxeXlXEw5Wjo37o54Hq6rfw8KDBwGV6eDH5+lLAwDTX14L6+3p4dh+YlyacmD5jYUxoZC6JiGqDghz//5tfXhSfn2fEw3mQjxNxcEcaM0MRKDkrT2CxsW6KiVhiYixheILT012QkIG+DOk4AAAgAElEQVR4nO19i18aSba/2rQiIkIEIo0OaFBAaF88NrooKBBdDU8loxjdiS6+krmZyW4Mu8bszeOumcxksn/yrx5d3VVNo/CbLHrv+N397Brthu769jnne06dqm5ru8X/Mbi6rvsKblGD5BLAgvSPheThZKpSCQchKoejrmu9tN85IDOj6CfX/ORqLKIPeS92nrwsFF4enPCp5C031wbAzCL6YT4Vy8S48pOnDwmeXuhjqflrvr7fL5LYlS1OxjJu7kKi5csX+L/PHh6I7tjzhas+4hb/Ecyj4J/MpN0x9xNEy7NnE6XSdBRhKxhKryav+xp/v+g6jGXSse//69nDLxPRaAcN0xyXiTwPXPcV/k6xkEq7I5M/fPMNcGOlDhXMnzvd6ZM/Xvc1/i6xCCK/+8dvAF48fDitZqYjeu5wZ2K3Hq31SPLu2Pd/hcR887eHD801zHR0FIOhTOTwVj+3GI8AMeW7L178DVLzMFtrMwC6OTETm7ylppVwPY+43ZaXUgLz4otTy2aARzv1u9OpWx3QOgQmeYETvBMAUC0/e6bTtBmArQQXc99S0yosnug3jk43DqangVSOmnUA2jYDkCuXyzQ1gdsi6H8OyVX9xsSrV6+AxWBTAeTUs5mOUjZbOg3JsWYy474tqv2H4HqUFsoTgJZS6dUEIUSVZ1KYzjqdcfekdPICnwkJkee3dvMfwGgqHfM+e4VtJu5UMWL21VBUyjp9Bf4RPns+Im5spvjnt1bztbF4CNLLyhdIy9PC1oMHD5wML6YHPg1/5nT6/smjwvRCpXJuylUPErfVzq8J10JyMpZ2x1J/B7wUPy+vvH3wIEebSNT0QKcVaZzQnz3vWhh9xJWLOROgJnJbGvhaAKwcVng+k3G7K3//R+nVl+Vvv117oLIQsyYxiJnSUSizKsQ2TYAYAO/Mdd/Q/w24Rh9V+Fjq+x9/eJMGxNydKL0qnr0eOVMT4dMkpiN+fjE763Vn3JUC5sWUO71zG2h+OxYeZfjImx9hhezHCCQGMhMHIeZBVUUBFmrTJQCU6Ugwnf1TdANw4xIxplzBkbw3Pz9/T8aohMWW3VZgvg5adgW/EQuHPO/+ERcuf4jEQoAY3cSrZ5CYBzlNE5nWmc26uK4kUxPfOU8BYkJlk4wq8Iya6G7ZjSXrXEG4ZVfwm+B6JPAVVOiHxMRiwGLeZXUlTMwD7bx/Ord1trZiUnLPktMXB9QEt5DJxH3TPlNutpMjsD0OEXB865RBN08uIKR8P8e18Nn4LRjNRIT/lnj55q+pCHRlD3U6HSbmgXZ2+XZlefnb5dfmksJMtngQ4jYgMVloSoCZTYdMzIChD8Po6eHvtezeZvT4+4X9P8jIA2ZusjdzkSrXYSRW+YEQ881/CSlAzF0dYsakq0phxveWifvTWyvfAiy/12Fmos5StvD27G0lCPSyD9sRYKbgJ8TsD7VLsO/Z9C3Lc1xTggYzIsffxEwLy6XAYlJqI5sEyf5fZWK++WGOEKNDjsyMGckd0+Emah5fRsys5SRmskXAy9u3c5s5U1wyMsBMMSExEza0y8yM2biWVaW7wuTRGOszIGBmgjdPNAbm4dMy+nw1lUQCyTW5GklRxHxYBsQ8Q8SUaEemW2OEgLkw8v79yMhIUao+R7PZccDM652qyeSUmTHFUyIel2G7zIyx1xZuWUFtkYSZXfJoGCAz4mCrLqBRdN1bSrraAs8jsUw6hWzmMCZcvHj37m9/w66svPrk7t0soAW2LfkoMswsM9M6n8639TpOqs/RrBNQY46WTAwzpjlRbTLtfXmhdeOS5InJ2GlmbpwAcC3BjstAypb6xe2OLYHfJCPCxbu7GO/e/X1l/eCdxAwab4qZWYaZaEmny205dToiAJxOZ/bc3GEGbJCKAWBGEme2AcVk2g1h/f2W3fF9SQD0yI9GH1QAN08AJGGP8iP+4uUTwZ1+BNKYdEQi5uGLuw8fPl0feQF+njCXSmpBZh5h0xqzThf36ZR0pgRnAWqZKVsQMx6FGftepHVP7AJRZttGmhlB37pUt0EEllxtXe6Lp08PuEzsEQgysTlMDBhXp9N3ugKj/7tXHbWIvmeZiaJIRE2kAWqA/UxrMpPvU0zGPmzjl1p1v901zqy9/Q+eoNC6QNcwQJRZWH359OlFrJJZaksK7r9ji8lmATfF9M7desx0nKlKASDCsHY1nY0iZuSpG8jMhRU+sbQzsw/YWuZLRvVEmVEKxLAnCFMtuoAmEHC1LR4DZrzpJEBG+ICI+QcI9+CZ31h+h//VCDPa+ac5rlQMZJux7VHMGHtb5ksWgyJhhrqCPnABN00AYCysA2ZSsUfJZCrmxb4sisRVtedJfWI63j7Q/LUK9HS0rAB6KGUGpRnX3/1VME/SosDo0sxgWK/Xh+/PLM0vLrhccEJjiSfEcI89VJyzceJUIx+/lBwlTq9rNPl1LplFcpRJeBciO09fhjOT84dp4X+Q94oiX+QrrAOe3v2jzpj/620jzNAgqpkKvwCeEMfpvwp4HrnFruQg+EmPWBAFvVSwDIP/kWt23GM20eXEBj+f74bkB2bgj1/notVfEKZKiF2V8tOXfMz9yB17804OK8CZnW28q09Mx4MVU/PMoEyTDr/tdo+N+3rguxfAqIm1fxDp3wn8vnIFQ71CM18AvmGJ11994P8vRH5KKUdMnrx8kro42LnQ/4y8V4fEzOkO+YcWqitHdRtn6jGTK8KKJhNm7GOPe7Tx2EaGTLDVOaT2BL0yanWPC/fuUUYLvSmC7epvsYGnSC/bnnD1GcotNHj9kHxFjiT5P3/YAbhIvZCCjMLMxCXMbGm0ZVzBzDisaPZQmhlIo3rw7A1ic7Lte+oexJ4wEFIMUNird1y7kXoykDeFX5IfvvpbPAM98ufbwgN7V56xty3dwl5fI9e/j7hRpKordQKJ+VD5MyRGksgwzqy9eFe3068jt1w01f9rHWY2gM0I+aH2hmA3Dj+GdzUwZL/6YHSC3TAWIhYw3NhJUADAR3q4r4Hj7UN7EvVCCJxw9Rn2oWHEZcjTyNXY7Xu74PKpYtXCpPeXX37xYmcmDSMsfK2tfag/9rq1qqk5o8ma4kgA/NrgQEvDFjRcfaByhgGHDdu+8eqD0QlQAAjhhkYOwLiPqBEGGz3BvgeeFSHfd/WR6GhPEHy6Xok0rvnDSbcbTinflbPKKDCalZWzuo3LuhGTyVnvj1qIwj4AdZi5AiA8C42OMRkJZAP5Rum0AyYbJwY4311EjKGJpwt8wX6jh9uHweWrJosm0yjMKFHd7MyOfLv+8lWdOG/eMMkzLw0BOLMyrADYPFdfoHyhA0Kjbom+Na6n4aE2hsHRTTwr7dvAJkONEwPvIdLEPRjA9fBs5j2J0kxKi01nncXllZcPX2qbjfks1xQzZqDMkHYNNWjZ6K62BVvjzzM6AzLTxEh4BFbFXwnATDNWD42mR2j8Hoz7AsePqpi5oJ0ZijS+05Wd0/UtzZGOwmalxpkxmySTEfJN3NbQoNDTTJjBzNh6G3aAwPk1HAQQjNvAvzYoYeSv2G38HuD1q5mJAGlGa7FoNpv9sra8vDyuPdaFGmaiZnM9qsxxU+4ctWc07nMBhvJCvplRQHcmhBsfaiAAmrOAvu1mPh59xV4TTwqKk2pvBpm5y2ixaDT6fvnb5ToFsrhJzcyDfxWz2ZKWnIPEFHE9sbm4IQi9Q5dD9WmAGbX/sxuNfe0wn4AjagSg/7Zt225KYfQN2nqbMhlIfjPu0mOrUQCIGfUzf7r87Yh2nCkWa5nZcvqcTkiO+mOyplw81SklXfRVa4C+TEMPtzt4KbaH2SfYPsyz1A8Z9obHBr7DGBgYGBsboCSIMaw2mSuuqC9v623qBMgMU/S4/Oh2Tw/HB2qZqSnGvF1eUTfLIlRH1os13szpjB9Vsz5nLTvRXLxiwTlaiPK5njEN0CNtgMnG5eBZVW3fYx5pu2d/W40B6hs8tkF2GD1jAzWgxaRHZfT2vuHLTwDMUKHS7qk5WPVkeEKi4NKwGTUD/1o50+DF9H5lebmWmZIzXhHnNovZEjKdrA+2OpsBpnOFsNSdKeSVgbQP8LYaCPRA7zVQ7gyx4fU7euDsHpvSIGtB4HlqKOx7rIUBi9MA7R09PawFeESNE5jBtvcOMrdcgwGGGk+PqOrknYyVNZjZWq+tKPvOAC/Lx0WUz+CdgKKEmZTbzXGpjULc6YO2g5E9cISDpJxFCQCYf4cJpAOEQfq+G2Gmh3lCDR/pfxrv8AkZnRg8dYB97DFtooAYC29VHc+cAAZOYP7JWxK138AwY8xTQ2/8xHd2wseD5xO7CY3PB1asnmHF+YyaheKqOv7r3gJalk9fwzDjBH4KCIF4PF5SmHEjcso7hSqwGsBPtljmMumKVIannzjATFg23CmxhjkpbbwCTMA37n000Ofz+S6EQMCVt6BxsIh0E8IgEzQ8Cd6SDHRJpwxaNKjcs9EdWe13+H7w2Riufl6Lmb4w9U/DHUsn4GTqfvdSMrmLv4AfYx9GdcPKZLryopYZ3doaE2fMr9dWlkfOq6ZcTuq9cJqq8VzOyTDjTn0v8Pr08drI589rxzF+dXJpnnSt0Le5zytLnaTausBc5gApIAq1bo+AGQfjwCe6wp/g77vwOLtcZNi2qThkfMy4pn2en3eRExYkYjpFlmvqfOj8lqTjwRl5ixYzHtqoPRZL5yImcmGJXNF3RvoLatoiJjPc/2hMx5iWl8+y09PYX5m3RlaWP4/HyYIYqNrMpnhh/Py8AEKKkzAT+/OfY0vz8/OwtyA5Pz8acLWNSiNPP3H2bWURwALpamGHCpcnQ9v7Y8N1QTuDvo/DTBSRB861SMaB6XWz0Qbg6eT7lXFOSidY6DzRPsY84QkLf08+IyC7P5YZKpOF7nLQhch3dckm9ok6GvgRdZf3ZEb48E5jOubB8spGNuuEsfwBCPzvt9DKvjgI8FlUnIF9S4UElziCEUVixvvzG7eqT6gb24xAP7FDYSWnIswxUQOWGzkhPObp05LXGqrT7vmJtUlgA6qBZgUAPSMBRp0fVZiZIczcodyfsZd6dADznfwCOUPmng0c9uFeVgD0t0lEyiZGM2PsFcKqHutUJnZRk84gEbCyUogXx8/+eby+dlaEXsypo+J+FC6NFd1u8UhmJvTh59Rz9tPbwlJDM/3EGUO8zN+SxAxT87cPCpytt4nyoX2MDjN9dyz8ImFGekItCUYAMJdzh98lQQYM3K48cLR/3OaULwDh3JKQT3DNazOzT32HcZvnky6JyAT5AtqbGfLqjlXXqlt4ozm3HC2cjawdg+hy+roKzcWpKsHkYKkykwHU+HzxVMjtFi6efIiofGUXCSO0oRseB+UDpNUTqmIMIGa/kSkteeA+fUcZARBOVjLULmkcLHeoYRgaZHSWRY5K4PhReZwZ9xekjN4ATGZQOWNJPoN+uobyHkYAEPdHfQH9eHhq+iKXIu6NlOZS2Ol4Ll4tFqtxLVqQBMgVxMzzVJrbefnyF4iff/amVBY5qmUSHmDZBEQgMHliX4+w3VSRyvMTG2YseTmey+GWGoa+HqZZlOe7tcaZzng8j8dYZ6ac0Ua0XCdPp2QGJrWGAqCGGdq/AgHAVs3m+XI1m3qtaTM+AnNN1UViZlNMPwqkYtzFz08gfr5QVUtlZyUM0jJkr1YARJi0y/C4uUqzfZgJMyBuzBBm5rUUradCy41PsqeBJ0xpDtweFWaM3wFmqDOId7IkGBVM55lAAOQDlzk/+75qycoSf+B0+jZTTXbDIOKAN/scypygtWreDx9+/vCLt7ZReUoSAEzf7FitAGBKH/a93abqwGCsmGxmn5Jm3SSeM8kJkzwBTyOPs2shoSmaB2ij3wbMLCrSTB7pXuYmqVu2f8fL7k82Sssd6g5AmGHyzEN+A+5FUvRrT8VczkwcdpGJsD6ajMQioUooQnabUeAiWaEqfZBLd0taccg+8LGpOnC74SOTGvQqWss1SMIM7b8G6OegD+SA8zIz98g4Wz5SX2DcpoSWAZDHKwJAOzDZB2mT27bUPiv04fa9HuapnucrqPc/6/U2bzRmU24reFTYgI4pcBiJRPQZtStTlnoxlQ3jICUApDgT+gN9wMdPTfYA/MRUwT5aZE0bkHMHOs/cpuveHmABsmhum9EWACG6VV0EuU6bzExSy/2191HtoJBLxSw1SwxjNiYQTEYuSmhVxqZDs7B8KUqm3Km3Wj3AWq/rj6NaOwInSZhhCsmcrA9dpKzGzP55fhpoypnZx+4wWSdwTzV5JmMldHBG8VzxTXmLxjjb9x7T+by+k59RmJnRjBt7Yerh8ihfIbtLRiz25YUwNQXgSgmbuPxYTJSbZsZpqqY2ATO2y9agSmu92T4YT60AYFqeQTxnnj6PJmhm9hnm+4KKU5fzTLY6Sbs2oOR2F2QmCTGWXfqYMTrMeGyMABjUihv2fbqCOwy/Qn1FtJr09DDZjMJM1utotll5GmrmQrF6wF+2e3a+duEsHApZANwjzDAFxu9opdW+p7n3BR3DjdvM/KQhKEmzQIBUQix3GCthKgBANN/Hw+ZyUa6JyUW3aVFvEC2UkXVZtdzf0GPqlof2ecugRAxJZFU8Cqx4eh4rl6RyvXWjSWZgr9IcyHYO9DVhX0FAsyg2VisAGOoMH2mlBZjprAXDTF+e6TEAI5fISyCH04HLPkCPMyycwFrf/NJSd/99UtC30Mqs3dDDOMM7FkvARUAimYVWf0YPbaRG4F6729DRC/e1VLwhrOoBSEa4IjSaeLGYEpvru5yGa/w3QSZ6IKiTSwpa5UwgOhUBQBa2MtR5fqLDdQPMGARGABhscJwwtC3gEyME+cTM1GAigSZP5M9nrZxdkzXAd87IuK8htYAR0A4TCADLIFooM5PQqnyDNFPMM6PoOkmnADWAmOKBdVM19uaqtNFSDuSaOp1ONcFsym3AbTKKO1yk/soxkmduXyUA6HomCDPfscxYasEw43nsYZmpPZwJXCGmc8JDz3yS+U9Ggth72cSXnc+UTmHvsYceeXgHqqNp79puzAt61Q5woxF3cPNLEaKSUDVkVP+C5+tEMRgMcv5ThpkSlMyzgLfiORervw6WFMXoRi27R3GpRABwQYqZvk+sBvbs3tEAkwywE88GjcMZ6aea0ffsq4/+tMeodkOQbRyzez7VfMGYao6Uju/DNUfvM/Vb2NCkXrKajLitF4iZA6uqvawqujMQqIgcZOs3cAagbN3MAWYKofRkWx10cRpRBIQZWbnPEwFAayvDR0YAAKo0QY+DqqePOsoI/gP/jx0ItsvGbjeqPpvtawHORtU4Zrerr4ZZAAICHzuTXHPxbJfPtsDV7sCTjGSChSpAsRKMqpjJ/DEA1M1h2s2lisyforC9T6zAVg0QodzpervHkDyTbQTbFmorANv0wP30samiGatQGzh8jG+uZdo42PAKA+kb9my2JpoSPTZOmKoN1osnQvkAYs5aVDGTQiU2d4bbjDNdftOwva8iHsCWwGK1HIrU5v4S7dLAM87GICjBThYAdC/DwE+fmmuGHNr+takeve3mmhLhODeX+Rp2G14r1I46hTnNnRFcj3heELiY2xGn43+0KKK3YgTS4nmO2aa5BIiJezlvsYqYOQil6+lmkmfScy/ABctTAK4wad+gQjIIM83VZkBm2VTruCHfHDNg5JrrTbeP2YTGqUR9Qry2igocxtIgnlSU9zDBptfNyCGyqcisiV7JZM7C2Rovxx0VvyBvds6lD7WJceVJWwz1APVtawgAWpR6wneaczYgojflzTw9TTEDR64pmwEJfTOrBuBykfo7RiyOHqZDZXlreSfayRdvsrwQ+Yw7MuAfojr0J2eZ4zaKcFIN2AwQZ3VsRp57oZgBl10rALgQtUx/2CY010AMzmimqx86p2aY6QvBEkUTVgyX5kYaXiuE1r7V3xvRNe/OiEeSzehg/ACieBXJha50qmpCf/Hl4jjBiZc5d6pYRZKuWixHVuvsqycrL3qt9z613ZwsAKiVYrBtprkufehtmhhq6GuasLEhtAywiZWJfb3ghN1GmbR7HnPcZXtWLcXcovRWuWk0/rkNQXr5UkocR11lPrLFb7UspGPlc4TN02P3Yb0ND7trmbF7BA0BIPQqN96Xh4lnM80ZaE1nE0uIeoUm1o5JPYkNU2/vg0wKvY1+vgEYmKi/ZGvEZMwdjOOdsDAD8VRECgdLEW8cuLOSTIxXqDx//ry/f2ZmZik5v1C3NuOSui9pZvoGBT0lACRnJoz9QVb6HgEbUeMjDdf1C7sNUwMXXML1lo0cb+8bs0nPTl/70NWn2O0euGiwcSKRgdUJ/xgLsYz4xQc7+aelva+5tGQKC6viZs43TYgpevnJxna/DJDSC4gzRgy4AFlDAORhX9+vv/7ae38wH5b8257B2BAMvXjRMTdm6Gvk+CEPXA4uBMc8Vx8vL+uH17i9P3zVKQbPAF78zkwUtsNEltkAQEpO8cULNb0TLKACqGYBN1Is+WfkUPlTpeCME2LmhEbf/kfKmeCueiXAVe9i/j5G/yDZeSQ4uBsM4rUX5FfA6fU2hDDZrcIW3G7ohG18gq1n98rj8z2CnleuyNYTHLzieInIIDNdtLffO3gnSLC7mx8c3N5GX54XRD5/xYZVgVQ6FPQenBeg4Mrlqu6YfMJCBsR73DebG69EGt54CsV3ERXIeZ63wSUvcPsbsZ9sBIQLweiuO61W/F8ZnVZSXbx8GY0IQD5FgPsAaZQ/LRb45QTMRjxXQJxZCtN7AF1+tLylyTZdbs2jW+eDgBDgEdBHkCVAPJ9fuvI5D6BXZYMHJDU3u3F2SjdbJGOhFNywPGfa5CKXzMaoAOO7mBqZxZgT9WFoKVNJqWZjDXvRH6DPE2dH6mHWm1D2R+cgDxaLRJ7D70iIXDCV8nq9yHN2+oNezU+aDYr5/qYx051cgFtAdc80eAJx33RiahxEW0LNjAZcrjZXILA4n+y+PxiG1hOe6h5tyP/Mp9LpNCxgAgHPM2/FPIy5Q5tV05ZXbIKYLpjgO45KuGWtdMT349kmSStbvXCpjc+XBYMrBnPm+oh7rYQYB1dJed+UyxsHO0+OCsUvX748fJadmJh49RCuBXV4iz6d5kf4Ui3Z515mhk6c4WZCYbXHQvOtTWwVvbh0mMqkY7FY+hE7j/M84uaCJ2KsmTf8INNwjEvrnHxH8gQt0spiKi61IIBhF+d8uvoA4yr5esepOaqFiVcFByf6z83mOh8BmLk8zH4VBOQ5DSo9A6pbDH6VDcNdgYWFhZpPWrJFYjEh08zuiqic6ShAwVcqZX07ftJqhwe54HNm4SvRdgAzjo16Q4qp2cJ71zvqzIgDZsCn+Mfrf4gv1Yp97kc15jRgin+pKv7N6JpPJpt77PphmEnE4Ua0HdFs/LgiN48ik8k6s9EOn7Pk7YSWdSkzOvNnGGrEijYxHdMTr8oWYE/1P8CX2m3BJrNLcjXKTjPTwl2pGwIqZ4pzcPwhM+fpNy7SogijzI4vC7NaJwwznL96BTMjkBm/3N4zzWLi1UTKUrnMIfpONOY/vjr6NZoajGPqTvJrxwKMDY4DREBHNH68LjETQAVof9E5jZgpAkclBp0KCVoDiw1L8mVR+MZVFq++WB2bGmfKCiB70ooXrZE5jRDdNgNspgVf3QzukTCDRvN8ff3fLqlpEjqm3SyyJZ/vHISZTq8yludzMmZlK0ASwJ+TXNdEGcpkBingNs0MHzqfz2SqFrfebm5uzHrnWrFnd0Cuz9J55j5/w5wZLmc6ipgZ89rK+p9cUosi+L2l7MPMOOE+zkqIMJ9bcYMJSFusbpmZHNDE1lkS7R/6lU4UcCjMVsXOWYXc4ulG+fj4xC3iLhiMFuzZLfdw05MYffnWbeTeIFA501p0ImZMmZWVP2JmkDMGYQZNk/qyKOkhAsBc9U+hHi6kHk4IM+ZqApjMFon2Bat+Smn3wmVT2pl9rnTPqDdEnmmBNEtqdDXCBUst0OvNIIAydmvViaZDt1ZXjhewZg5jzYx/X4JhRhEA5jJIeiDg40cxA1SzWDETZg74JZcCPB7+omx21dV/X88td5M5DbLFap/BM3ZFJfkagMNJGIvmjrP1FS+lmTl/XGIGhhkxSCio+oMBF178A4W1zMy5g7N+Jgp5whvsUpqKMTNi0CQ7s7fr1/OCLDK3LiWbu/l8PggrnHzL3kvVGJC2h9IMSrDo7MrKG/yId2PGstjLlTZoAWA+tUxhlwc7CClmwFGOLcLMQ7G/TW0zlIbwrb25njvuUu3jLQq4wKm/Ya/rQOXMkzgmwHcCmPkTwmQlCJyctyQloHDvE1kAmHelhVkBeJOiV2bG2yk6SJPIqwI/M0oB+RBKQ2ytfv9HGa18XBelkrSqFq7nb9ib1NBTcxwtIWdWjK2srKdjsUgksn5ykpqsgDwTho0oCjOO12YS//GqPKysFbnlOxHFFOntfXVgZWrxyLlTRYT36yurMtaP/90y13ZvCk87Talxs5hB05WAGann47N77nitvLE5fgTnf7JOHyoNRLNoH0d/XHrcN6246ok9lGIH8YQcZoA7m/T7HQ6H1YGBXYhSRDClTggymcxqejX95oZ5k2vGPMMMCCjPnmVR0V9aSYWymZIThhlx10ecliXYRSnrc+LkgDRzKE3XOqcvHo/DNnnY9As/AcStnBJnFORypuLp6srqZUuvfndA3ZkUM/BhN5dKPrhrTdaHt9w0Z7Mwt++clRjw+fV4X55AWKSFsHnTwflr9vSMTk9Dlr04JOnqwGw+X11J38S3mV4X8BTjscaKaeWVQSUnesOGVUoSzUUHFgBSASdBCQBSmmEBmImj+QHrJbMI5s/r69eU4NxE4BKS40hjOBWUnCjMOLYkZsYdkgBIqgRAUBQrWvuv+FADWPUAAAUASURBVJy+Ap7uTGzVpcYcz9wyowDNIYlzl78+AIcZzi8liSBrwav4cc4j11uAZAMfpbUPLmDmFEsAMVh/HqF0csuMApRn+s9LGsNJMZOFb9gQw2QIU2JYWpLPhhlgWZ2zjF+MTkfhHqpATnj7B1HbUWclzs78K8yY0qt/uu7xuDlAOXylKrkg8wMZQFFtbW1hA9Ch12x3lokA+AsWAC6suBNEbplnO2XRHK1uFQo7O0c7uHf3aCfcP5MMIyXnrVa3xs83T9+/f3+6OV7VUann6g2rXF0jXGjacoMsIdjyoxREhrQitHTkoLwWzDOxAMCKe04OMwkR5DbEykAmA0v/Ul8TH5zvalvI84LIdTr8DqnZCcDvlaukm+srtxkNAXrq/eM5adnHrJUT9LDBCheUOvFMS8cECjMOyWuZtxx49xdpOpqYkhkKOAdaeD0dhzJbPzPfHeT1sO7BdSM97FqaCgcpILmWIjYzsu697vG4OYBPvRiu5nBw0CVE/RTcd7UL18klA+jIolzE7yTPtpXHO4ChTYIUAbAhMxPNVkUR7VrbNd8/NdWfVMpi8g694Ftw9Znkr75bAUAB5pmdXvIW+i2/Xqod4VUZfrxOOore5CAmCAOn1jAOM0G2EgZbOBzn6AxnAUixK6uUUnMOcZLp2xqAApjDW09zUnnYayHviAhKRS7MDAozsgDQzeKdeV24a4swYy4iZf0UhRnfuaOB16MjZqynxEmmV25WSfE6EcDdmXiX7Q6dn4ym1MKQwIxN4zBDqmO6FNr/KBDA66GsR9LIwrcKiRU0maDzgZTnap2FmCE1TvPm6jXN19xESG0zkjR77SCjiVsYRLckzeZESgDATB/3yaOKm2ODZCN+JPNQZpQteS3M9ixJVXM/hkiZjE43cl2TzzcROM+sSpsIzFnIayLxTLMkzaLxIC0AdDlJ9ELNa/3LOFXNhAaEmHFmw2wjCm6KFK0qgPNlYnwnt2FGAcozd6v4VSglvzyakp86wM4MvcmRBGowhOfjMgo58ltnAqmEqtSC62edGd5vIDiuBjBXopnj6bo7fPz+gCbExXwVv0DwizKauIXBX8DO7BSGGetntoFPVVsBUhrN8mcxM0ANMNEcab1Ob+2qDJ38AVuxyK0AIMBF/EociWZz0S+3KODGhQraqmM6CztiKQGgBXM1gYLGJmonmPYdUTtwt5FulUtbzXXeBsTc7wY400uhjTeizqKDhBkszYABYM8UZASAJnx4TZMf9xOWfBvs+iTU0ybPImhSu+W4aU1F1wnk/TvLJh3ajaNoIQ8tlmaOAyd+bTcKM1Svuca4ovCPzA8xU/KyYWYRlxTil1A7d2syCvA2P47NnBNuhZLbkp9z3E2ZOHKWfFm4ETGqW15iMuZxvKDJWnY60eqobCLIxAyc7Ccuo9aifnPI7xl4lb9/C6+G9p3Ke6rg3oC5QjYejz97hsLMJdPEZt2mHzfGJE7jGF+sTJhpk5oA632E2XzuuGlNxdcKqWwVz0GYxv3y6ztRb3jnwfnBxoV3MiHKNRitJa86X9HrwKVpce7s7PRz2TuZd6iWwXbj5vVpQgSrznzFsrUl62b/12AG5eWxNYjjEPhRCsEunLC7mRX0x2vHCGsqHFPdfjHlFLY0M4V+t34sYY3+lOMT8KfwrcXQWJTaWu9BwB+k37tGtXCvDrQP1v4m7c8ZHf1f2Mz0/wAYyw5Do63gQQAAAABJRU5ErkJggg==;" parent="BYj4IODatlQpI1-kctF0-1" vertex="1">
          <mxGeometry x="500" y="290" width="98.09" height="29.5" as="geometry" />
        </mxCell>
        <mxCell id="BYj4IODatlQpI1-kctF0-24" value="" style="shape=image;imageAspect=0;aspect=fixed;verticalLabelPosition=bottom;verticalAlign=top;image=data:image/png,iVBORw0KGgoAAAANSUhEUgAAATgAAACiCAMAAADiKyHJAAAA+VBMVEX///88Oj/iWhz//v////05NzzjWh08OUAnJCrhWxw8Oj4zMTc2NDkzMTYpJi3c29wtKzEjICfT0tMoJiv4+PgwLTPs7O0kIifcTgDk5OWYl5n19fV9fH7Y2NnaTQDiUgDLy8yMjI2pqariVxNIRkrBwcKzs7SfnqBTUlVkY2a6ubvNzM52dXdxcHOurq/x0cAAAABfXmFPTVH56t7++PHtwKvjm3zqqpLceEzZYy3z1cUIAA7eflcbGB6Qj5D239HgnoDlZCvgjWXZazj68OPptpzcelPvyrPkoYXy0r/cjmvfh1/svaX77+vYYCLWRQDdq47QUAAUDxngEoBxAAAcSUlEQVR4nO1dC1+bSNeHBAIkEEFCQu4XkphEY6tGq+5Gd9f62mrX3fb7f5h3ZridGYaLvTztqv9fa1MCA3M493NmFISXBgn9vf7jQvvzrztJKEvk/68ogLKwuXe9SqniDS+uEeVeCVcUm5uhVqngP577RnjluKKQzj2tomnob0UruZevhCsCrNHOhpjbKiUf2nt0tPxKvDyUhesBktGAaqVKyTsXXvVcAZSFGw/RLeI3TXNvEReWf/Zz/eqQhDduKaZbCduIwXvhVVTz8YAdkVIMreL99Wof8rEZQKr5cD/+7Kf6D+CNmyRc5UJ61XF5+MNLEq40fPezH+vXx7lX0pKUc5Ez96rosrDRUNSQENWS9/DqBGfjZKAlCIc8kpJ7J7w6wVnAXlyS4zzNu2i85pfSgGXxdhiEWyhWxVF+ED5UtOGHHJbD30qS/7P8srJ4mHD3XkA4RCxPA0FryT3Juxr5LIRaEibgi/JfEOVuSkHYUKl4Zx4Q24r3e/bFIT9K/ocXpRElYRMyHCLZAOeXYj1XQfYhDyen9zd/ao+//3sivKS0AGK460HoxmnejYR9k5BwKPB/5CqukEB/351duEPPQ8rRG7pnL4nhEA1Oh5EL4t0LwikVf6H4IRZALJFSqNY2lx9u3OHQi/lz+PAT5/ET8C4m3PBWIHEE8EqQfQCMFCTpNtfv/u/z0PVKlQp1br5gPyf8HhFKG75BpLl2oT+H44fwTMJ70smnBw3LJ65QVECshkzLy2K5x5BwWgWHp7j+AAin4ZpXhPd3Z4+IaNjZq/glipjnEB3//GmT+Al4P4hYpuQR5tpowJVD8UPAcZuPSKm5kKg0kAP4gghXFi5jycQ1GoxTF/hyFfcDYsPLd+cDxGqQpBzCnf/cyfxv8SnmIRRi+Y7GuQcFcHj/4Lku9jlARSdJN017SSk8pNEi21AZngaGANgHXKb2sFLTgj+pHIfc55wI7TkBBVyx9+Feh4Enrk+HNAKRRCrRyLcvy6hKQCoHm9D12BCzmUmnBN1eFMOhUNONhM/7M6Abig2wfUiXSi7cTy8prSTcAcKFooajqnNOOp3mMOb/w/uXVaG4BUb1XThzZFuvBzyVVgk8XhTSa3/GwoyD/HPpZaWV7uNkCAw1iX1I5tNxccIbDgfn/15vbiLzgeIu72Lz8+bwU3ARMxYdz28+eyzdkMcxHLo3Hz5iIt0P47aJSullGQaB7n7w6NzbqcuQzRsOHu/v3vvffhhC6+FevoAkJiYOqZfiqV67YaGm5N1A7U7sAw7mNSyJWKl9fvjks1XZt7parOKwQX0B+q1MEpL40+b0wgvKWhUNmcUyVW+5HpAmJhQ4uO757XVIGfwvCnCBAsTR7EvgOKlMJnlye+4Ow2ogos/wFlbuMWk/oK+9SKkFPIVzmSce6N/UXNwS9hJq/rgMen17g5MdWlhuQPYSt0xL8CQUP7gXZ6FSK5d92iCiby4A4UrDm43wjF04CXNKUMW7/HAxGPoki8qoYRaTwt8nMZdJvp8m+R3qPqPin5XHv8Py4DMEkU4yu80bksNNeGiV0mORyeNx7iOfGQm6F2YGnil8ltjc3WvusFRJhqFImRXJQmLWezcEFevK4OOzVm/YGmzuHpCA4voKJx2p4UaR/GEQje5csB6i5N4+y75+KXJp3386J2pNK2k+6aKp+1TQSsPT/OHIigjPvxonnkrDM2J+nx3lggkRxyMZQPm6zV+H5Hn/XBcZ7kSLa2IaLkE/O5r5kLCTe06qLFy6kbAd+2oXHwrp+A3IFyNfBjkiz9XvlW41UgZNr7KgCPTmXxIWFCDc78PY8a142vvnKKYEl4/YyyX1KR7hKohq57c4ApUKZdPOhvEwWmVw/Tw7u3Cv5YDXFq2RhYIoqnfdh9P3hYeThFs3jDOCFuHnik+ul2yLRkE7ro+67uCvuyfESui0uwGim29RcbX13TONs3DjW0nj+LolbAy0szdhmrzY7KXYEcEcVxneP0+y4Zk+eDjpwXIcMaGXfr+zJJQLW8X3GmVQ/08qTPOfhq98vM2A5jYkXyRJ9A46bAXZTcKOCGwOvtj8+gz3tYbrklnahvcpQCa0oOMBgTnrYRhHWiVPe84lhtMhLaZI392Q+UpPXWmEXt0fw0pcY6gMLv8DhqHbbje+6sI3LiOq6O/g5hQkc4tj8w+2MuFwbt7Cke+End/s1jF15Gprq6o9HTcF+OZmX+xtj760MZlu1db2qB0d+K3+W9//uLS24+jE0Ze6jbG9ig69d+k1gcRQII/3jOg4P/4vZhrQWTewNc47Kzbxb8WRLso69YhLXVQUUTG2bXi0KovylLpyZpqyiGD1wyN9Vdk2wtPNVXTmxBQJ6rP46nN+24zn+mwXLCYqAKlM1nvFr2Fw8r9guX0LTajFkshU67qoL8DBuY3OM6FY7lmKWFOtlmk1o5PMkLZdW1R3olN7NXRm3VbfRvcpCx/ZwmhEuuHn+6LRKQGi0rkHXML/jRO3QIwEOAE9RNMSzVm/j/hu240OlnXMXIAWwspSZPtqp9s+bEXPeVXTD/xPu3XR7EbnHsu1zk6/39+NObsM+skpkcX5EMR2t4WbFsqkF10DLOfm56C44zwFM1WsLWRnLzogCft1xUIf9uui1Q6PCXumOJ2KkfQh8tqKrPvfNyPCLfVwpJj3sCw5or1L31ciPisvcvCTJYTthEJcR5Thgwc66Uhj0w+W1qlcG+85+hocmjgyltGVGXEckjxTdCY93YiV+5UhWoD/fIiyPfI/jWt6aEkkoa2Kdpc5Fa82+uylt1FqWNvdJktbKcAsF5Ees9zT4wZyQXN3NZ8cHs5HzeyTD+vitrky5So45s95ZyrLsY67Qjwj7Bn6MjpiiMZYYICEXO+NMa6mkItnpiiTw7E0kBrxySNvn4Jw+sTI3l8WJMBfYKhKodJOAu3J2m7Zpuk4jmm3zN5++qlIc9V6Qt+mGAJpPd2ybFncRpqvqYqIDmj+ZnhkxxLrfZYb9pEB0Y0agoH05ig6vucgM2IYJmWUscOBd4VLJxwOwv552BSj3Encn4NcOvfJ1a3yfNEyayKAoYrzNIZHmqveRBZQqccqqGGgixRF0YHThayigd4IspQhB8/q6EpWjUwcRa45mHC6GClIhANd0R2nVj+IT8Vr1XAryOW532lfqVQqTCSBYonh40fCnPk+NllxE3R24SLFzROV/USvyyILuT7tc89Gmkuc7nU6yP2YRwfbLWQ9Wy31aBQfsqry0V4HqbWIjRD3qU32dfRq+DSMA+TMxA+OzEgPHx0JHFw+uJ5W8osyNOW8wT0xrX0jR+EImHDvByVgWd03xb0Z5ANMOWQjpLP2eONcYdZEcoV+xPoK8ZLTbLehMl8jBpIRJ4nIQgSHdlXks7DjIfN86H86dICC7KqUH5N47JMzzyUxE7XYr+JekJizPLas/MlLuBQNw4ebJ+z31bH4ZMNQe8nzm8iDxRrJQLFDPE1kY4/o8/otUcbyV5PFWjhMw4ziiIjEDUOpBwq1VwOvoq/SnjM7aeSZvHtkK/ie+4HkhvarjnycfnGIMl5LDXr4KwUKseFjL+tKKt2Q079OXIE0l06MHfJ17ejogV67otkTBWUiOe9Ijp0zrPYWfaG8M46sZ7ul2IFQHcvmYXQ9strTJgaPeqTnDSm80xtiJ8KNCYc3uNYiNHqIGWoHnOtokH0LbmGxplQ0J9edGhlkw5Rjea69FWu+/kfWUI183SkMMjFGqlL3qTBHrl3I/02kFWTbslQrklik92rBPJDNjc0N0o2yhfAb4wQzuPx9MPQLLZo3eCf5I+JJAe8xExsNcFwFN9QVoFyjqmfTDUkro+fWuhJ4IUhmo6ALGQwVmhJEST1081AcFSurXdt/U9vobCTkgZ/XthQrVpLL4NFarBPM4uQMk06ruOckTG+uW/4rP8y5zkdZ+BTXVfFWG5silDvOpZuoWPuQcvtv1S8d8klqtFrbTnC4/5v6hZrgIToQ2NzmW/tLbH6bvbpqq/YyOnu5DTNJqy8tIx7hS4vklCw5e9p4ln8jZTf8fEsU3zx0q8JoJBfSRbxkrmCha21k6bcAsgEp0kBIfpYkcDjjPP+//f1+gzqzzDuvESJz0sHfzekfpC+/eVSPRKWdeVX0syzcuTHHIdpthLxdWiZqPtkQWHP5C2PSikVI5Yh4cxJ1/fp5O7858cYrxYoOL3DNZrmdVhGyVZGwdjLH+WXQXNTBgzvJE8rTA8Rn/5698YvWEmmOIxnNCohZB3/n+HLHrP+m1wyHo/Sc43Sm/6XQMcFTy4vkCUfOMaLWp6Hrnr8Lkp5l0ut77oHuOtIfl4FJXaQ0XM1ajvc6a8dk6Gkl0hm/KpCTWI0e20j67mtHsfBSuCHZw+bzX6d+PRARDlYdKznbVnXB68G1ArUT6IRV1SASGnBhMkT6ZXEEXznITwUYmwrxi977GZEKLv//8cZPGf8OEpoVvDdOuksygXwtynIcFjbW8VfmIj9S/mVQhYRj/HHkL5LyB2ID6TGO0IauRtbX0Av2SdN5mp4TKYl0KDXWCygnW9j7/uWrtAG6lLFjs+5zK+BDKS5bkC47zHj3H2/i6EEjq4PTZr1jwbuA/BDBsuaL6eg/QzWB9RJUWlRm/nxJtv9DtKYBt54gOnke3CdNq2TVbSYmtAwOw5ddB1PzqJnFbr9Mo2yojkbQGREdynHubwMZmqIZncaLQYLV5BWmioG0XFrLU68GCCcnXNxZS/6veG8RJg5U2lTCvW2Hx62GwOxQxUNlsEmzDseQ4Tg+z7K+X0BMu/3V3vhguVz3OvP+V3WDdHfRCL31+mDcWZERvl43XMHcPygQIc9YlsPpqn1B2gzyCJeRCjZE4POwCgHfK9eaNkZXx3XbNGo6Qq1mqubR5GkmuDEaT23VdPAQtWCEor52t73T393f393d7fexQyD5GecIsJjWmOrRZIk2v8ijm/+7H7iwKcLh2zztVfd7hl2LDbOC/+hma51RHIPAGfueUTeAaUfOpKg71nKUe3F5dSCqLVW163XbVlULKxokWVQkFGXrEY5iLlFILvHBbyNOLzJm7KjE5C+tp7m5s4XFT4DqrSN+hYfFatGq8UdQF9mZy27HqNcgjYJ0e4MaDzTqrGPdp/gi/GHoL75Jp5ybSjg2ULWfEI+OjtX0MoW+7TVyuXeWVh/CkK1ehsWeOw5zfsBcTcrBClOnEnJKoTpv4ZPv/iFbA6fv3lIZ3qXN4YCJ5mWxqG7vrjOqO2QiejbLCM2lJWcmAo1qWnmrsVQV9tKAuXapJFk9TCp1KCfFJtwpnT4MXC9r2xv3fRrh9tj3ZhTMus0tPfHoNBR5O0lVmejwxNKhfuVBbs04I0hCE8XRibsHzDWDMaQS5o0PLajM61Hkv/l49oj3j9PC9TlgX0yyh1daTm63ztxedPKrQkgvHxRK4mVkVBrrxJ15aM051zYNXqo/KEpQrBA6WDM6QKKmKF2/I0vpSEYJboupaYOTdG1jiizs/PxR85hl1BTYXDONjrSrfJuQgMUG6WmlJUX2NWIPmqug4W6XoptD1Tr9XSM+PXh4oTBok0Paj6z0TaPBOGkWrUQmhkFbzy/uBFD5Y/XZbF86tgnPZs2lechcVFKpRsKeNnU3Z0mNJgXbY2zu7h9dEKuWPPedv00CH0zinOgBK7ui1rZlMU87RcNtR5wRdtPNcWLcqEwdYs4vkYTdnHRSaY41Yk2ugswmcfdiupGyg1952Fx+CHfpRmS7+Jjd/b/mcA9HPgDdErNWEh9iyGayWNLPsMcs4ap0MzES1BQt4TMXlZgVSZsPLdkGJ5UOIJ3cPlx8Hny+uL/LW67a5ql55AinXdU1OLPWDRPB0TlfGQlj02xxR3DwCDUO7U1K3PeSWtk/yzcjbUqd4W6xBaSbPs1yt8JfQbDxO9dzKLfHM29WWsxUThavdVtddg5ns9WkV1WT+sdi3LlGNUE3w7aX48l8Nd/rTVvJF6OGeS38I3m1j6BjZ0T1wNQbwhJyqD7N7geQgnYUXC/M/+UXR4x9qPKmG6LnKLQ4GerBLH6L/Z7KElanlXFStztmbz9+xuaeztor3OUUEo72b/FLM3wE6yrmVIlrigIG8LSymJd+IGtLyCb7BbZU6oqcl6jwmtIkYWXRp+nqmHmW5lplxI1uk54wDG6YHYYLGlctsUq9HJC16VBUrS/3mUr/FfxeXlLiJOvftXIiCW2esMomJ2ylVa+o1I84Jx0yxK1Bx5BRqYq65kxmZNMjOHEydQkZ2kwmWekYUobcLTvfvTAcZpRpyhnsfSThgBYza8Idbp+hHGihIe1y4B4Wv8OY9lhFOe64kYF0sEoAI1FejwexUxs7vxYSE5KIvp6TZVaT0vORVb4FSQwHut1mlIqS62nJJ8ZZi3rHujDHUefcP8XminDR2PcEEq+kS6uzqZIFlc1Q05/kiipzG7FETSFDZMkOJZJxWXkHKtBW0rVopkTASqq1+1bs8fxxxvccQf2kWKOM4SgCxSK1ouaVQXncXcgbAeY+qIUpAfppnVdq1tN+E8a8d4XiYeDMUPrJ5Laih6ApFCk5ip7czEcEOqIJ15ZMnJiePBU3SxFVvZea4fpmHPDuqQL1TznlemboItEdAmG4STlh+jpzKnR5NOxtHYPQosbphZ+kBGRK67tbhhhLg6PnwBIXyoVKrmGjQRXpwq5IKuVj5ThVJgx9wzWxUPUl+2kwYfmEQ+/xB1bOF5zKC+jDhEykJ/v3aVAME5jVMtSRTl6hm/LIQnecUhacVMQyNeHF48/vhfKU877U8PGoNpMsvU7QhWcH5YAZ9GutvC7yQyh1tn+/BpR13jNkJAqfWMF7EnjBlxI2EQD1oeQuV5EoTzVoroNJ0zyWxUuGIZF8jmtDwvFknefJR0+R2QPzbWhyckahm7vOUS8M4OkB4aBXX899/+1WUsftQ55t8a6hHr1KRc1I6/y4hc87TJQoxsoBuhK5kkprG3/ZIC29ufE21ecWcBfMfTC7ShBQhEWqlZ6Nnf+6vx5snInkUvfnAb9w8quvkM5+ZAWdU96sGTSgC2z5N+wAJcwTdiqpVDXYrGeeK/BNYBNHSCTI7ahpF1iRR5kSImgrMItcq4xHgITzD/UAG9c4i7Q6VNbyiI35ebHG90OHdYRNkkd/4rQpbeOvm4TOKW/WDKCohgy6gBaHU1LqUS1eeHMAqChFxfmBPomEHWEKpGGWkpICPhFHG0F2yPXi6CaQMLqCOgss249A1waxSmPY4Ef6JEKXqbkYV2zbWQHCQfc1WGsAvfoChNtREyN0k/JPgwq4/PLNlJ6M+SPb51e0MTLGmHDHT4kb8BpodgaUHNXy2wWguxy4P1QRmLNIiyJsEK/0qWNKjZMZ+H6g31INE65B5fJzbSLUiGHJABKuwIq6QzBEEF1RuQ8zeckOlVQiYbaEdz2BlPuhPkmH3kIDi1WTci3refES5M/QBlN1FCP7eoHOKQSrFaB54S3SopNK2+AoU1D8Lj5J+4ib/Z5RKR0iabQvmef3UxnysJ2U6iNiF24kAbVkwLPjHANFN5yHhQq2gJHvQuah2ds6XG21T1d18Rwp2ctTcg3KvITFPWqIfCVHuR7+IcpAccxLSsP5GNJTEb/VJ+mOrZrCZ9wV1fZJoiO6A1FJ9qdDUMWwaBsGOq2dmx0Bkho6rlAB8JJKVNY4fjVlmLtQFLH19T4JUvZ7dUwKhbO7hET7kb6K6tEZJz2r/XCPEuvo1VAxFGdXKhrQQoYMDinPk/W0hnNGWJO7gxXHxAg5iMNyTUosfVdgwaRNMt7anCIQeDP0GK1dXpKH5C9wTEC5cT6Rqb5oDs+XqeeGC0XHdEadV60ohJUY3wInW5iv6e4On7KJTF09rbQ3oV9vC7QvUI/Pb0jAz3KF5wWr+QHzUCULTp6hSb0x2MNRZixrnV9Jz8HomGqSTzg2HfDI1arvcXUTlRxZ5lJO6lFtylSXAuW/KqI+5SvKA7ITGOXG+cyzyqkN7lJdK1RDIpv0+RqfJNFmb61inkMfenSd0Pc82omciSibHFdmd0oLBW37mfBHNzh6ardaI+E7tJAB80ADxZM22vLTDnIv67mKYS9RWCALBIPkaGLmvvc64lRdZatHNvuN06rtg8RLodhybrIjjLthB5c/TBu/VhK+Q30R+Nt5MRvdcE6nvspMbtt5+hYDzWQLpjldkUfrzpZsn2pQr2enHDy93YtTwY3RusXWSlpM6ieRmTfqVzFpm/Mj0phIqA3XNfqpVKog7nC0FK/hPMKImfZX5Ek4JTTZNBfr9bFZT+sK7KTUK2tq9WBvNRrNO0vD1tk+VLPHGJ45JzOvTseT2Wg2GR/XTZ3oR5LuBa5kyDzVZP2HAtVpYLAOMuNQyc6TfZJZ8unxQDqvgze0ib3UZQmy7pj1uplcs1EVjaQeWiSIi5vY0AimE3MjjmORXERnBszToLwRjnaHKlRhl8kz4cxX+SRTDoX4iNrPWTeuCGqcMJzbqs2AzKgPvRGfeSgDxfFhG1APK8k8J9vL9nSfhCMwfMS7xuVsL8dD7ZhX0ZnkU45kLaGFDJgHGii5muxoaNPNVElv6YCZxfbJHZoFWc6IfONuUVLHcBb8Zo1eeutfeCV2LKGFDBoID3Mq4rTl56yv6DKLAZ7qk0iJ2I0P4zhacdoutuEXgJ2aP1nmrQMj4Tu0kEE1GiboeLEydJn5BS1WWCOfZLU3meyNhAn2aNtZ69qvcl87VlGxqPHcuCxk7h2xzLk5SWPBskuwuWheUomK6JI7WpAhGBsXNkfOVke9Vb9h4R7P9TbLUWErWZzHXwNRi6VEUcT8dX+OnLl3RC9bz5HwHWiTorVBqr2JsxmVkIwc490Ee3O8Mez4UGgu1pke3iJbYGR6CSGMf4wr3iZpALrVyyn04zW+qaiqAt2WFNQnyrCNh1cbpCx/SnfLitE5Qe1GEnroTTRaO1VhMs8mnLDkSp+/MEO2pztUZw+Ukla3u4wjq0Qroqwu+tldQXi56sLm2Kfg5qJAW8gguqJ7STh6qApauxVenhPfeVlTqEe2J/5qGp9wwlG7Wl7mxBSdbcprl02DFQRohnE3wmiaWHnkw7DAZt1ZmOuEdFSdndzc2WJegT1eYW2Q6o1L8nTXTuT7Oeiy+x0Hr4AQbtuYTXtCHuGEnaWVUFeKXLOmhwmOAW1nYdR/tGUlVjbU2rh4uma1sJgRFN2xjiddfPPDL2qE34La4G/xIYtTJNt5qwK85aesJGH1pQ5hWwZ5Bz3kDTfedoW3u8IiP4rt92y7FkUislwzW9Mxp4OL6kYIHYHm5AjvT1MjG9w4pmovOk9cStDeO1LDEQzHbBnLyBNo7gB0k4d2ksqg2885IbzrLgNyzzYmdB85I+hjkSC2Meociaql2mpLrS7Gc1LDTdwSllnC5gV8UoPsqbRe9672ZjtP3VOpTI8wmbXLAl85RksuEwezkL7/RMY10pOaNvEGRTtZdAbxTzJ4fkU6YPsvzxF4RQpA/KNk7OT8ChYg9alk/XKFVzCAqdfMzdpfQaEMvZH/zo7nPx+c+OcVRTBK9ka+ogjmyaL6K4oAZgjTgudXcMDpjXxFEcAMYe3VjSsOOZnGfkUB8HojX1EAMPX66sY9AbA26BT79WDPEf8PekRI7r7DCosAAAAASUVORK5CYII=;" parent="BYj4IODatlQpI1-kctF0-1" vertex="1">
          <mxGeometry x="598.09" y="238.5" width="78" height="40.5" as="geometry" />
        </mxCell>
        <mxCell id="YBt4v1ZXII1srtwcnCsu-3" value="Cloud&#xa;CDN" style="html=1;fillColor=#5184F3;strokeColor=none;verticalAlign=top;labelPosition=center;verticalLabelPosition=bottom;align=center;spacingTop=-6;fontSize=11;fontStyle=1;fontColor=#999999;shape=mxgraph.gcp2.hexIcon;prIcon=cloud_cdn" vertex="1" parent="BYj4IODatlQpI1-kctF0-1">
          <mxGeometry y="231.5" width="66" height="58.5" as="geometry" />
        </mxCell>
      </root>
    </mxGraphModel>
  </diagram>
  <diagram id="HwMYA3hPFNnTDlfRDAzx" name="第 3 页">
    <mxGraphModel dx="1886" dy="769" grid="1" gridSize="10" guides="1" tooltips="1" connect="1" arrows="1" fold="1" page="1" pageScale="1" pageWidth="827" pageHeight="1169" math="0" shadow="0">
      <root>
        <mxCell id="l8DpoykIZITudawsj6Yw-0" />
        <mxCell id="l8DpoykIZITudawsj6Yw-1" parent="l8DpoykIZITudawsj6Yw-0" />
      </root>
    </mxGraphModel>
  </diagram>
</mxfile>
